G04 ================== begin FILE IDENTIFICATION RECORD ==================*
G04 Layout Name:  C:/Users/LENOVO/Desktop/P1_MILS/PCB.brd*
G04 Film Name:    FAB*
G04 File Format:  Gerber RS274X*
G04 File Origin:  Cadence Allegro 17.2-S025*
G04 Origin Date:  Fri Dec 13 17:52:35 2024*
G04 *
G04 Layer:  MANUFACTURING/NCDRILL_LEGEND*
G04 Layer:  MANUFACTURING/NCDRILL_FIGURE*
G04 Layer:  MANUFACTURING/XSECTION_CHART*
G04 Layer:  MANUFACTURING/NCLEGEND-1-2*
G04 Layer:  BOARD GEOMETRY/DIMENSION*
G04 Layer:  BOARD GEOMETRY/DESIGN_OUTLINE*
G04 *
G04 Offset:    (0.0 0.0)*
G04 Mirror:    No*
G04 Mode:      Positive*
G04 Rotation:  0*
G04 FullContactRelief:  No*
G04 UndefLineWidth:     4.0*
G04 ================== end FILE IDENTIFICATION RECORD ====================*
%FSLAX25Y25*MOIN*%
%IR0*IPPOS*OFA0.00000B0.00000*MIA0B0*SFA1.00000B1.00000*%
%AMMACRO10*
1,1,.004,.025,0.0*
20,1,.004,.025,0.0,.02462,-.004341,0.0*
1,1,.004,.02462,-.004341*
20,1,.004,.02462,-.004341,.023492,-.008551,0.0*
1,1,.004,.023492,-.008551*
20,1,.004,.023492,-.008551,.021651,-.0125,0.0*
1,1,.004,.021651,-.0125*
20,1,.004,.021651,-.0125,.019151,-.01607,0.0*
1,1,.004,.019151,-.01607*
20,1,.004,.019151,-.01607,.01607,-.019151,0.0*
1,1,.004,.01607,-.019151*
20,1,.004,.01607,-.019151,.0125,-.021651,0.0*
1,1,.004,.0125,-.021651*
20,1,.004,.0125,-.021651,.008551,-.023492,0.0*
1,1,.004,.008551,-.023492*
20,1,.004,.008551,-.023492,.004341,-.02462,0.0*
1,1,.004,.004341,-.02462*
20,1,.004,.004341,-.02462,0.0,-.025,0.0*
1,1,.004,0.0,-.025*
20,1,.004,0.0,-.025,-.004341,-.02462,0.0*
1,1,.004,-.004341,-.02462*
20,1,.004,-.004341,-.02462,-.008551,-.023492,0.0*
1,1,.004,-.008551,-.023492*
20,1,.004,-.008551,-.023492,-.0125,-.021651,0.0*
1,1,.004,-.0125,-.021651*
20,1,.004,-.0125,-.021651,-.01607,-.019151,0.0*
1,1,.004,-.01607,-.019151*
20,1,.004,-.01607,-.019151,-.019151,-.01607,0.0*
1,1,.004,-.019151,-.01607*
20,1,.004,-.019151,-.01607,-.021651,-.0125,0.0*
1,1,.004,-.021651,-.0125*
20,1,.004,-.021651,-.0125,-.023492,-.008551,0.0*
1,1,.004,-.023492,-.008551*
20,1,.004,-.023492,-.008551,-.02462,-.004341,0.0*
1,1,.004,-.02462,-.004341*
20,1,.004,-.02462,-.004341,-.025,0.0,0.0*
1,1,.004,-.025,0.0*
20,1,.004,-.025,0.0,-.02462,.004341,0.0*
1,1,.004,-.02462,.004341*
20,1,.004,-.02462,.004341,-.023492,.008551,0.0*
1,1,.004,-.023492,.008551*
20,1,.004,-.023492,.008551,-.021651,.0125,0.0*
1,1,.004,-.021651,.0125*
20,1,.004,-.021651,.0125,-.019151,.01607,0.0*
1,1,.004,-.019151,.01607*
20,1,.004,-.019151,.01607,-.01607,.019151,0.0*
1,1,.004,-.01607,.019151*
20,1,.004,-.01607,.019151,-.0125,.021651,0.0*
1,1,.004,-.0125,.021651*
20,1,.004,-.0125,.021651,-.008551,.023492,0.0*
1,1,.004,-.008551,.023492*
20,1,.004,-.008551,.023492,-.004341,.02462,0.0*
1,1,.004,-.004341,.02462*
20,1,.004,-.004341,.02462,0.0,.025,0.0*
1,1,.004,0.0,.025*
20,1,.004,0.0,.025,.004341,.02462,0.0*
1,1,.004,.004341,.02462*
20,1,.004,.004341,.02462,.008551,.023492,0.0*
1,1,.004,.008551,.023492*
20,1,.004,.008551,.023492,.0125,.021651,0.0*
1,1,.004,.0125,.021651*
20,1,.004,.0125,.021651,.01607,.019151,0.0*
1,1,.004,.01607,.019151*
20,1,.004,.01607,.019151,.019151,.01607,0.0*
1,1,.004,.019151,.01607*
20,1,.004,.019151,.01607,.021651,.0125,0.0*
1,1,.004,.021651,.0125*
20,1,.004,.021651,.0125,.023492,.008551,0.0*
1,1,.004,.023492,.008551*
20,1,.004,.023492,.008551,.02462,.004341,0.0*
1,1,.004,.02462,.004341*
20,1,.004,.02462,.004341,.025,0.0,0.0*
1,1,.004,.025,0.0*
1,1,.004,.0125,0.0*
20,1,.004,.0125,0.0,-.0125,0.0,0.0*
1,1,.004,-.0125,0.0*
1,1,.004,0.0,.0125*
20,1,.004,0.0,.0125,0.0,-.0125,0.0*
1,1,.004,0.0,-.0125*
%
%ADD10MACRO10*%
%ADD11C,.0039*%
%ADD12C,.004*%
G75*
%LPD*%
G75*
G36*
G01X-199270Y206030D02*
Y203800D01*
X-196770D01*
Y9870D01*
X-199270D01*
Y7640D01*
X-184270D01*
Y9870D01*
X-186770D01*
Y203800D01*
X-184270D01*
Y206030D01*
X-199270D01*
G37*
G36*
G01X-219270Y7640D02*
Y9870D01*
X-159270D01*
Y7640D01*
X-219270D01*
G37*
G36*
G01Y203800D02*
Y206030D01*
X-159270D01*
Y203800D01*
X-219270D01*
G37*
G54D10*
X-194040Y-116640D03*
X96460Y39430D03*
X78740D03*
X96460Y70930D03*
X78740D03*
Y114240D03*
X116140D03*
G54D11*
G01X-227990Y-97860D02*
Y-85340D01*
X-222100D01*
G01X-224270Y-91390D02*
X-227990D01*
G01X-214500Y-85340D02*
X-210790D01*
G01X-212650D02*
Y-97860D01*
G01X-214500D02*
X-210790D01*
G01X-199320Y-91600D02*
X-196220D01*
Y-95360D01*
X-197150Y-96610D01*
X-198230Y-97440D01*
X-199780Y-97860D01*
X-201330Y-97440D01*
X-202410Y-96610D01*
X-203340Y-95360D01*
X-203960Y-93900D01*
X-204270Y-92230D01*
Y-90770D01*
X-203960Y-89510D01*
X-203340Y-88050D01*
X-202410Y-86800D01*
X-201480Y-85970D01*
X-200250Y-85340D01*
X-199160D01*
X-197920Y-85760D01*
X-196990Y-86590D01*
G01X-191250Y-85340D02*
Y-94310D01*
X-190630Y-96190D01*
X-189390Y-97440D01*
X-187850Y-97860D01*
X-186300Y-97440D01*
X-185060Y-96190D01*
X-184440Y-94310D01*
Y-85340D01*
G01X-178540Y-97860D02*
Y-85340D01*
X-174670D01*
X-173430Y-85970D01*
X-172660Y-86800D01*
X-172350Y-88470D01*
X-172660Y-90140D01*
X-173590Y-91180D01*
X-174670Y-91810D01*
X-178540D01*
G01X-174670D02*
X-172350Y-97860D01*
G01X-159950D02*
X-166140D01*
Y-85340D01*
X-159950D01*
G01X-162430Y-91390D02*
X-166140D01*
G01X-220250Y-8600D02*
Y-11750D01*
G01X-221150Y-8600D02*
X-219350D01*
G01X-217300Y-11750D02*
X-217610Y-11700D01*
X-217890Y-11490D01*
X-218130Y-11170D01*
X-218280Y-10810D01*
X-218360Y-10390D01*
Y-9960D01*
X-218280Y-9540D01*
X-218130Y-9180D01*
X-217890Y-8860D01*
X-217610Y-8650D01*
X-217300Y-8600D01*
X-216990Y-8650D01*
X-216710Y-8860D01*
X-216470Y-9180D01*
X-216320Y-9540D01*
X-216240Y-9960D01*
Y-10390D01*
X-216320Y-10810D01*
X-216470Y-11170D01*
X-216710Y-11490D01*
X-216990Y-11700D01*
X-217300Y-11750D01*
G01X-214350Y-8600D02*
Y-11750D01*
G01X-215250Y-8600D02*
X-213450D01*
G01X-212380Y-11750D02*
X-211400Y-8600D01*
X-210420Y-11750D01*
G01X-210770Y-10650D02*
X-212030D01*
G01X-209240Y-8600D02*
Y-11750D01*
X-207660D01*
G01X-202550Y-8600D02*
Y-11750D01*
G01X-203450Y-8600D02*
X-201650D01*
G01X-200430Y-11750D02*
Y-8600D01*
G01X-198770D02*
Y-11750D01*
G01Y-10180D02*
X-200430D01*
G01X-197120Y-8600D02*
X-196180D01*
G01X-196650D02*
Y-11750D01*
G01X-197120D02*
X-196180D01*
G01X-192830Y-8860D02*
X-193070Y-8700D01*
X-193350Y-8600D01*
X-193660D01*
X-194010Y-8760D01*
X-194290Y-9020D01*
X-194490Y-9340D01*
X-194640Y-9860D01*
X-194680Y-10330D01*
X-194600Y-10810D01*
X-194490Y-11120D01*
X-194250Y-11440D01*
X-193980Y-11650D01*
X-193700Y-11750D01*
X-193420D01*
X-193150Y-11650D01*
X-192910Y-11490D01*
X-192720Y-11280D01*
G01X-191620Y-11750D02*
Y-8600D01*
G01X-190120D02*
X-191620Y-10540D01*
G01X-189880Y-11750D02*
X-190950Y-9650D01*
G01X-188700Y-11750D02*
Y-8600D01*
X-186900Y-11750D01*
Y-8600D01*
G01X-184060Y-11750D02*
X-185640D01*
Y-8600D01*
X-184060D01*
G01X-184690Y-10120D02*
X-185640D01*
G01X-182730Y-11330D02*
X-182410Y-11590D01*
X-182060Y-11750D01*
X-181740D01*
X-181430Y-11590D01*
X-181190Y-11330D01*
X-181070Y-10960D01*
X-181150Y-10600D01*
X-181350Y-10280D01*
X-181700Y-10070D01*
X-182180Y-9960D01*
X-182450Y-9760D01*
X-182570Y-9390D01*
X-182490Y-9020D01*
X-182290Y-8760D01*
X-182020Y-8600D01*
X-181740D01*
X-181470Y-8700D01*
X-181230Y-8970D01*
G01X-179780Y-11330D02*
X-179460Y-11590D01*
X-179110Y-11750D01*
X-178790D01*
X-178480Y-11590D01*
X-178240Y-11330D01*
X-178120Y-10960D01*
X-178200Y-10600D01*
X-178400Y-10280D01*
X-178750Y-10070D01*
X-179230Y-9960D01*
X-179500Y-9760D01*
X-179620Y-9390D01*
X-179540Y-9020D01*
X-179340Y-8760D01*
X-179070Y-8600D01*
X-178790D01*
X-178520Y-8700D01*
X-178280Y-8970D01*
G01X-173800Y-10440D02*
X-173520Y-10070D01*
X-173290Y-9860D01*
X-172970Y-9760D01*
X-172700Y-9860D01*
X-172500Y-10070D01*
X-172340Y-10390D01*
X-172300Y-10750D01*
X-172340Y-11070D01*
X-172500Y-11380D01*
X-172740Y-11650D01*
X-173010Y-11750D01*
X-173330Y-11650D01*
X-173600Y-11330D01*
X-173760Y-10860D01*
X-173800Y-10330D01*
X-173720Y-9650D01*
X-173600Y-9280D01*
X-173400Y-8920D01*
X-173130Y-8650D01*
X-172850Y-8600D01*
X-172580Y-8700D01*
X-172380Y-8970D01*
G01X-169630Y-11750D02*
Y-8600D01*
X-171080Y-10860D01*
X-169120D01*
G01X-165220Y-11750D02*
Y-8600D01*
X-164200Y-11230D01*
X-163180Y-8600D01*
Y-11750D01*
G01X-161720Y-8600D02*
X-160780D01*
G01X-161250D02*
Y-11750D01*
G01X-161720D02*
X-160780D01*
G01X-159090Y-8600D02*
Y-11750D01*
X-157510D01*
G01X-227020Y-6080D02*
Y-2930D01*
X-226230D01*
X-225910Y-3090D01*
X-225680Y-3300D01*
X-225480Y-3610D01*
X-225320Y-3980D01*
X-225280Y-4510D01*
X-225320Y-5030D01*
X-225480Y-5400D01*
X-225680Y-5710D01*
X-225910Y-5920D01*
X-226230Y-6080D01*
X-227020D01*
G01X-222410D02*
X-223990D01*
Y-2930D01*
X-222410D01*
G01X-223040Y-4450D02*
X-223990D01*
G01X-221080Y-5660D02*
X-220760Y-5920D01*
X-220410Y-6080D01*
X-220090D01*
X-219780Y-5920D01*
X-219540Y-5660D01*
X-219420Y-5290D01*
X-219500Y-4930D01*
X-219700Y-4610D01*
X-220050Y-4400D01*
X-220530Y-4290D01*
X-220800Y-4090D01*
X-220920Y-3720D01*
X-220840Y-3350D01*
X-220640Y-3090D01*
X-220370Y-2930D01*
X-220090D01*
X-219820Y-3030D01*
X-219580Y-3300D01*
G01X-217770Y-2930D02*
X-216830D01*
G01X-217300D02*
Y-6080D01*
G01X-217770D02*
X-216830D01*
G01X-214110Y-4510D02*
X-213330D01*
Y-5450D01*
X-213560Y-5770D01*
X-213840Y-5980D01*
X-214230Y-6080D01*
X-214630Y-5980D01*
X-214900Y-5770D01*
X-215140Y-5450D01*
X-215290Y-5080D01*
X-215370Y-4660D01*
Y-4290D01*
X-215290Y-3980D01*
X-215140Y-3610D01*
X-214900Y-3300D01*
X-214660Y-3090D01*
X-214350Y-2930D01*
X-214070D01*
X-213760Y-3030D01*
X-213520Y-3250D01*
G01X-212300Y-6080D02*
Y-2930D01*
X-210500Y-6080D01*
Y-2930D01*
G01X-204630Y-3190D02*
X-204870Y-3030D01*
X-205150Y-2930D01*
X-205460D01*
X-205810Y-3090D01*
X-206090Y-3350D01*
X-206290Y-3670D01*
X-206440Y-4190D01*
X-206480Y-4660D01*
X-206400Y-5140D01*
X-206290Y-5450D01*
X-206050Y-5770D01*
X-205780Y-5980D01*
X-205500Y-6080D01*
X-205220D01*
X-204950Y-5980D01*
X-204710Y-5820D01*
X-204520Y-5610D01*
G01X-203340Y-6080D02*
Y-2930D01*
X-202350D01*
X-202040Y-3090D01*
X-201840Y-3300D01*
X-201760Y-3720D01*
X-201840Y-4140D01*
X-202080Y-4400D01*
X-202350Y-4560D01*
X-203340D01*
G01X-202350D02*
X-201760Y-6080D01*
G01X-199600D02*
X-199910Y-6030D01*
X-200190Y-5820D01*
X-200430Y-5500D01*
X-200580Y-5140D01*
X-200660Y-4720D01*
Y-4290D01*
X-200580Y-3870D01*
X-200430Y-3510D01*
X-200190Y-3190D01*
X-199910Y-2980D01*
X-199600Y-2930D01*
X-199290Y-2980D01*
X-199010Y-3190D01*
X-198770Y-3510D01*
X-198620Y-3870D01*
X-198540Y-4290D01*
Y-4720D01*
X-198620Y-5140D01*
X-198770Y-5500D01*
X-199010Y-5820D01*
X-199290Y-6030D01*
X-199600Y-6080D01*
G01X-197480Y-5660D02*
X-197160Y-5920D01*
X-196810Y-6080D01*
X-196490D01*
X-196180Y-5920D01*
X-195940Y-5660D01*
X-195820Y-5290D01*
X-195900Y-4930D01*
X-196100Y-4610D01*
X-196450Y-4400D01*
X-196930Y-4290D01*
X-197200Y-4090D01*
X-197320Y-3720D01*
X-197240Y-3350D01*
X-197040Y-3090D01*
X-196770Y-2930D01*
X-196490D01*
X-196220Y-3030D01*
X-195980Y-3300D01*
G01X-194530Y-5660D02*
X-194210Y-5920D01*
X-193860Y-6080D01*
X-193540D01*
X-193230Y-5920D01*
X-192990Y-5660D01*
X-192870Y-5290D01*
X-192950Y-4930D01*
X-193150Y-4610D01*
X-193500Y-4400D01*
X-193980Y-4290D01*
X-194250Y-4090D01*
X-194370Y-3720D01*
X-194290Y-3350D01*
X-194090Y-3090D01*
X-193820Y-2930D01*
X-193540D01*
X-193270Y-3030D01*
X-193030Y-3300D01*
G01X-188630Y-5660D02*
X-188310Y-5920D01*
X-187960Y-6080D01*
X-187640D01*
X-187330Y-5920D01*
X-187090Y-5660D01*
X-186970Y-5290D01*
X-187050Y-4930D01*
X-187250Y-4610D01*
X-187600Y-4400D01*
X-188080Y-4290D01*
X-188350Y-4090D01*
X-188470Y-3720D01*
X-188390Y-3350D01*
X-188190Y-3090D01*
X-187920Y-2930D01*
X-187640D01*
X-187370Y-3030D01*
X-187130Y-3300D01*
G01X-184060Y-6080D02*
X-185640D01*
Y-2930D01*
X-184060D01*
G01X-184690Y-4450D02*
X-185640D01*
G01X-181030Y-3190D02*
X-181270Y-3030D01*
X-181550Y-2930D01*
X-181860D01*
X-182210Y-3090D01*
X-182490Y-3350D01*
X-182690Y-3670D01*
X-182840Y-4190D01*
X-182880Y-4660D01*
X-182800Y-5140D01*
X-182690Y-5450D01*
X-182450Y-5770D01*
X-182180Y-5980D01*
X-181900Y-6080D01*
X-181620D01*
X-181350Y-5980D01*
X-181110Y-5820D01*
X-180920Y-5610D01*
G01X-178950Y-2930D02*
Y-6080D01*
G01X-179850Y-2930D02*
X-178050D01*
G01X-176470D02*
X-175530D01*
G01X-176000D02*
Y-6080D01*
G01X-176470D02*
X-175530D01*
G01X-173050D02*
X-173360Y-6030D01*
X-173640Y-5820D01*
X-173880Y-5500D01*
X-174030Y-5140D01*
X-174110Y-4720D01*
Y-4290D01*
X-174030Y-3870D01*
X-173880Y-3510D01*
X-173640Y-3190D01*
X-173360Y-2980D01*
X-173050Y-2930D01*
X-172740Y-2980D01*
X-172460Y-3190D01*
X-172220Y-3510D01*
X-172070Y-3870D01*
X-171990Y-4290D01*
Y-4720D01*
X-172070Y-5140D01*
X-172220Y-5500D01*
X-172460Y-5820D01*
X-172740Y-6030D01*
X-173050Y-6080D01*
G01X-171000D02*
Y-2930D01*
X-169200Y-6080D01*
Y-2930D01*
G01X-163330Y-3190D02*
X-163570Y-3030D01*
X-163850Y-2930D01*
X-164160D01*
X-164510Y-3090D01*
X-164790Y-3350D01*
X-164990Y-3670D01*
X-165140Y-4190D01*
X-165180Y-4660D01*
X-165100Y-5140D01*
X-164990Y-5450D01*
X-164750Y-5770D01*
X-164480Y-5980D01*
X-164200Y-6080D01*
X-163920D01*
X-163650Y-5980D01*
X-163410Y-5820D01*
X-163220Y-5610D01*
G01X-162080Y-6080D02*
Y-2930D01*
G01X-160420D02*
Y-6080D01*
G01Y-4510D02*
X-162080D01*
G01X-159280Y-6080D02*
X-158300Y-2930D01*
X-157320Y-6080D01*
G01X-157670Y-4980D02*
X-158930D01*
G01X-156140Y-6080D02*
Y-2930D01*
X-155150D01*
X-154840Y-3090D01*
X-154640Y-3300D01*
X-154560Y-3720D01*
X-154640Y-4140D01*
X-154880Y-4400D01*
X-155150Y-4560D01*
X-156140D01*
G01X-155150D02*
X-154560Y-6080D01*
G01X-152400Y-2930D02*
Y-6080D01*
G01X-153300Y-2930D02*
X-151500D01*
G01X-228800Y-7130D02*
X-226440D01*
G01X-225850D02*
X-223490D01*
G01X-222900D02*
X-220540D01*
G01X-219950D02*
X-217590D01*
G01X-217000D02*
X-214640D01*
G01X-214050D02*
X-211690D01*
G01X-211100D02*
X-208740D01*
G01X-208150D02*
X-205790D01*
G01X-205200D02*
X-202840D01*
G01X-202250D02*
X-199890D01*
G01X-199300D02*
X-196940D01*
G01X-196350D02*
X-193990D01*
G01X-193400D02*
X-191040D01*
G01X-190450D02*
X-188090D01*
G01X-187500D02*
X-185140D01*
G01X-184550D02*
X-182190D01*
G01X-181600D02*
X-179240D01*
G01X-178650D02*
X-176290D01*
G01X-175700D02*
X-173340D01*
G01X-172750D02*
X-170390D01*
G01X-169800D02*
X-167440D01*
G01X-166850D02*
X-164490D01*
G01X-163900D02*
X-161540D01*
G01X-160950D02*
X-158590D01*
G01X-158000D02*
X-155640D01*
G01X-155050D02*
X-152690D01*
G01X-152100D02*
X-149740D01*
G01X-191770Y210360D02*
X-194920D01*
X-194290Y209890D01*
G01X-191770D02*
Y210830D01*
G01X-192820Y212800D02*
Y213820D01*
G01X-194400Y215510D02*
X-194710Y215750D01*
X-194870Y216020D01*
X-194920Y216340D01*
X-194820Y216730D01*
X-194550Y217010D01*
X-194240Y217090D01*
X-193920Y217050D01*
X-193660Y216890D01*
X-193130Y216100D01*
X-192770Y215750D01*
X-192240Y215510D01*
X-191770Y215430D01*
Y217090D01*
G01X-149390Y-47780D02*
Y-35260D01*
X-146290D01*
X-145060Y-35890D01*
X-144130Y-36720D01*
X-143350Y-37970D01*
X-142730Y-39430D01*
X-142580Y-41520D01*
X-142730Y-43610D01*
X-143350Y-45070D01*
X-144130Y-46320D01*
X-145060Y-47150D01*
X-146290Y-47780D01*
X-149390D01*
G01X-136680D02*
Y-35260D01*
X-132810D01*
X-131570Y-35890D01*
X-130800Y-36720D01*
X-130490Y-38390D01*
X-130800Y-40060D01*
X-131730Y-41100D01*
X-132810Y-41730D01*
X-136680D01*
G01X-132810D02*
X-130490Y-47780D01*
G01X-123040Y-35260D02*
X-119330D01*
G01X-121190D02*
Y-47780D01*
G01X-123040D02*
X-119330D01*
G01X-111880Y-35260D02*
Y-47780D01*
X-105690D01*
G01X-99480Y-35260D02*
Y-47780D01*
X-93290D01*
G01X-68180Y-36300D02*
X-69110Y-35680D01*
X-70190Y-35260D01*
X-71430D01*
X-72820Y-35890D01*
X-73910Y-36930D01*
X-74680Y-38180D01*
X-75300Y-40270D01*
X-75460Y-42150D01*
X-75150Y-44020D01*
X-74680Y-45280D01*
X-73750Y-46530D01*
X-72670Y-47360D01*
X-71590Y-47780D01*
X-70500D01*
X-69420Y-47360D01*
X-68490Y-46740D01*
X-67710Y-45900D01*
G01X-62440Y-47780D02*
Y-35260D01*
G01X-55930D02*
Y-47780D01*
G01Y-41520D02*
X-62440D01*
G01X-50660Y-47780D02*
X-46790Y-35260D01*
X-42910Y-47780D01*
G01X-44310Y-43400D02*
X-49260D01*
G01X-37480Y-47780D02*
Y-35260D01*
X-33610D01*
X-32370Y-35890D01*
X-31600Y-36720D01*
X-31290Y-38390D01*
X-31600Y-40060D01*
X-32530Y-41100D01*
X-33610Y-41730D01*
X-37480D01*
G01X-33610D02*
X-31290Y-47780D01*
G01X-21990Y-35260D02*
Y-47780D01*
G01X-25550Y-35260D02*
X-18420D01*
G01X-9590Y-48200D02*
X-9890Y-47990D01*
Y-47570D01*
X-9590Y-47360D01*
X-9280Y-47570D01*
Y-47990D01*
X-9590Y-48200D01*
G01Y-42560D02*
X-9890Y-42350D01*
Y-41940D01*
X-9590Y-41730D01*
X-9280Y-41940D01*
Y-42350D01*
X-9590Y-42560D01*
G01X15210Y-35260D02*
Y-47780D01*
G01X11650Y-35260D02*
X18780D01*
G01X27610Y-47780D02*
X26380Y-47570D01*
X25290Y-46740D01*
X24360Y-45480D01*
X23740Y-44020D01*
X23430Y-42350D01*
Y-40690D01*
X23740Y-39020D01*
X24360Y-37560D01*
X25290Y-36300D01*
X26380Y-35470D01*
X27610Y-35260D01*
X28850Y-35470D01*
X29940Y-36300D01*
X30870Y-37560D01*
X31490Y-39020D01*
X31800Y-40690D01*
Y-42350D01*
X31490Y-44020D01*
X30870Y-45480D01*
X29940Y-46740D01*
X28850Y-47570D01*
X27610Y-47780D01*
G01X36920D02*
Y-35260D01*
X40630D01*
X41870Y-35890D01*
X42800Y-37350D01*
X43110Y-39020D01*
X42800Y-40690D01*
X42030Y-41940D01*
X40630Y-42560D01*
X36920D01*
G01X64810Y-35260D02*
Y-47780D01*
G01X62650Y-39430D02*
X66980D01*
G01X77210Y-47780D02*
X76290Y-47570D01*
X75360Y-46740D01*
X74740Y-45280D01*
X74430Y-43610D01*
X74740Y-41940D01*
X75360Y-40480D01*
X76290Y-39640D01*
X77210Y-39430D01*
X78140Y-39640D01*
X79070Y-40480D01*
X79690Y-41940D01*
X79850Y-43610D01*
X79690Y-45280D01*
X79070Y-46740D01*
X78140Y-47570D01*
X77210Y-47780D01*
G01X103250Y-41100D02*
X103870Y-40480D01*
X104340Y-39430D01*
X104650Y-37970D01*
X104340Y-36720D01*
X103720Y-35890D01*
X102630Y-35260D01*
X98450D01*
Y-47780D01*
X103560D01*
X104650Y-46950D01*
X105270Y-45690D01*
X105580Y-44230D01*
X105270Y-42770D01*
X104340Y-41520D01*
X103250Y-41100D01*
X98450D01*
G01X114410Y-47780D02*
X113180Y-47570D01*
X112090Y-46740D01*
X111160Y-45480D01*
X110540Y-44020D01*
X110230Y-42350D01*
Y-40690D01*
X110540Y-39020D01*
X111160Y-37560D01*
X112090Y-36300D01*
X113180Y-35470D01*
X114410Y-35260D01*
X115650Y-35470D01*
X116740Y-36300D01*
X117670Y-37560D01*
X118290Y-39020D01*
X118600Y-40690D01*
Y-42350D01*
X118290Y-44020D01*
X117670Y-45480D01*
X116740Y-46740D01*
X115650Y-47570D01*
X114410Y-47780D01*
G01X126810Y-35260D02*
Y-47780D01*
G01X123250Y-35260D02*
X130380D01*
G01X139210D02*
Y-47780D01*
G01X135650Y-35260D02*
X142780D01*
G01X151610Y-47780D02*
X150380Y-47570D01*
X149290Y-46740D01*
X148360Y-45480D01*
X147740Y-44020D01*
X147430Y-42350D01*
Y-40690D01*
X147740Y-39020D01*
X148360Y-37560D01*
X149290Y-36300D01*
X150380Y-35470D01*
X151610Y-35260D01*
X152850Y-35470D01*
X153940Y-36300D01*
X154870Y-37560D01*
X155490Y-39020D01*
X155800Y-40690D01*
Y-42350D01*
X155490Y-44020D01*
X154870Y-45480D01*
X153940Y-46740D01*
X152850Y-47570D01*
X151610Y-47780D01*
G01X159990D02*
Y-35260D01*
X164010Y-45690D01*
X168040Y-35260D01*
Y-47780D01*
G01X-155930Y8820D02*
Y5670D01*
X-154350D01*
G01X-152940Y8300D02*
X-152700Y8610D01*
X-152430Y8770D01*
X-152110Y8820D01*
X-151720Y8720D01*
X-151440Y8450D01*
X-151360Y8140D01*
X-151400Y7820D01*
X-151560Y7560D01*
X-152350Y7030D01*
X-152700Y6670D01*
X-152940Y6140D01*
X-153020Y5670D01*
X-151360D01*
G01X-145980Y7350D02*
X-145820Y7510D01*
X-145700Y7770D01*
X-145620Y8140D01*
X-145700Y8450D01*
X-145860Y8660D01*
X-146130Y8820D01*
X-147190D01*
Y5670D01*
X-145900D01*
X-145620Y5880D01*
X-145460Y6190D01*
X-145390Y6560D01*
X-145460Y6930D01*
X-145700Y7240D01*
X-145980Y7350D01*
X-147190D01*
G01X-143340Y5670D02*
X-143650Y5720D01*
X-143930Y5930D01*
X-144170Y6250D01*
X-144320Y6610D01*
X-144400Y7030D01*
Y7460D01*
X-144320Y7880D01*
X-144170Y8240D01*
X-143930Y8560D01*
X-143650Y8770D01*
X-143340Y8820D01*
X-143030Y8770D01*
X-142750Y8560D01*
X-142510Y8240D01*
X-142360Y7880D01*
X-142280Y7460D01*
Y7030D01*
X-142360Y6610D01*
X-142510Y6250D01*
X-142750Y5930D01*
X-143030Y5720D01*
X-143340Y5670D01*
G01X-140390Y8820D02*
Y5670D01*
G01X-141290Y8820D02*
X-139490D01*
G01X-137440D02*
Y5670D01*
G01X-138340Y8820D02*
X-136540D01*
G01X-134490Y5670D02*
X-134800Y5720D01*
X-135080Y5930D01*
X-135320Y6250D01*
X-135470Y6610D01*
X-135550Y7030D01*
Y7460D01*
X-135470Y7880D01*
X-135320Y8240D01*
X-135080Y8560D01*
X-134800Y8770D01*
X-134490Y8820D01*
X-134180Y8770D01*
X-133900Y8560D01*
X-133660Y8240D01*
X-133510Y7880D01*
X-133430Y7460D01*
Y7030D01*
X-133510Y6610D01*
X-133660Y6250D01*
X-133900Y5930D01*
X-134180Y5720D01*
X-134490Y5670D01*
G01X-132560D02*
Y8820D01*
X-131540Y6190D01*
X-130520Y8820D01*
Y5670D01*
G01X-124770Y8560D02*
X-125010Y8720D01*
X-125290Y8820D01*
X-125600D01*
X-125950Y8660D01*
X-126230Y8400D01*
X-126430Y8080D01*
X-126580Y7560D01*
X-126620Y7090D01*
X-126540Y6610D01*
X-126430Y6300D01*
X-126190Y5980D01*
X-125920Y5770D01*
X-125640Y5670D01*
X-125360D01*
X-125090Y5770D01*
X-124850Y5930D01*
X-124660Y6140D01*
G01X-122690Y5670D02*
X-123000Y5720D01*
X-123280Y5930D01*
X-123520Y6250D01*
X-123670Y6610D01*
X-123750Y7030D01*
Y7460D01*
X-123670Y7880D01*
X-123520Y8240D01*
X-123280Y8560D01*
X-123000Y8770D01*
X-122690Y8820D01*
X-122380Y8770D01*
X-122100Y8560D01*
X-121860Y8240D01*
X-121710Y7880D01*
X-121630Y7460D01*
Y7030D01*
X-121710Y6610D01*
X-121860Y6250D01*
X-122100Y5930D01*
X-122380Y5720D01*
X-122690Y5670D01*
G01X-120640D02*
Y8820D01*
X-118840Y5670D01*
Y8820D01*
G01X-117660Y5670D02*
Y8820D01*
X-116870D01*
X-116550Y8660D01*
X-116320Y8450D01*
X-116120Y8140D01*
X-115960Y7770D01*
X-115920Y7240D01*
X-115960Y6720D01*
X-116120Y6350D01*
X-116320Y6040D01*
X-116550Y5830D01*
X-116870Y5670D01*
X-117660D01*
G01X-114710Y8820D02*
Y6560D01*
X-114550Y6090D01*
X-114230Y5770D01*
X-113840Y5670D01*
X-113450Y5770D01*
X-113130Y6090D01*
X-112970Y6560D01*
Y8820D01*
G01X-110020Y8560D02*
X-110260Y8720D01*
X-110540Y8820D01*
X-110850D01*
X-111200Y8660D01*
X-111480Y8400D01*
X-111680Y8080D01*
X-111830Y7560D01*
X-111870Y7090D01*
X-111790Y6610D01*
X-111680Y6300D01*
X-111440Y5980D01*
X-111170Y5770D01*
X-110890Y5670D01*
X-110610D01*
X-110340Y5770D01*
X-110100Y5930D01*
X-109910Y6140D01*
G01X-107940Y8820D02*
Y5670D01*
G01X-108840Y8820D02*
X-107040D01*
G01X-104990Y5670D02*
X-105300Y5720D01*
X-105580Y5930D01*
X-105820Y6250D01*
X-105970Y6610D01*
X-106050Y7030D01*
Y7460D01*
X-105970Y7880D01*
X-105820Y8240D01*
X-105580Y8560D01*
X-105300Y8770D01*
X-104990Y8820D01*
X-104680Y8770D01*
X-104400Y8560D01*
X-104160Y8240D01*
X-104010Y7880D01*
X-103930Y7460D01*
Y7030D01*
X-104010Y6610D01*
X-104160Y6250D01*
X-104400Y5930D01*
X-104680Y5720D01*
X-104990Y5670D01*
G01X-102830D02*
Y8820D01*
X-101840D01*
X-101530Y8660D01*
X-101330Y8450D01*
X-101250Y8030D01*
X-101330Y7610D01*
X-101570Y7350D01*
X-101840Y7190D01*
X-102830D01*
G01X-101840D02*
X-101250Y5670D01*
G01X-96650Y6720D02*
X-95630D01*
G01X-89370Y8560D02*
X-89610Y8720D01*
X-89890Y8820D01*
X-90200D01*
X-90550Y8660D01*
X-90830Y8400D01*
X-91030Y8080D01*
X-91180Y7560D01*
X-91220Y7090D01*
X-91140Y6610D01*
X-91030Y6300D01*
X-90790Y5980D01*
X-90520Y5770D01*
X-90240Y5670D01*
X-89960D01*
X-89690Y5770D01*
X-89450Y5930D01*
X-89260Y6140D01*
G01X-87290Y5670D02*
X-87600Y5720D01*
X-87880Y5930D01*
X-88120Y6250D01*
X-88270Y6610D01*
X-88350Y7030D01*
Y7460D01*
X-88270Y7880D01*
X-88120Y8240D01*
X-87880Y8560D01*
X-87600Y8770D01*
X-87290Y8820D01*
X-86980Y8770D01*
X-86700Y8560D01*
X-86460Y8240D01*
X-86310Y7880D01*
X-86230Y7460D01*
Y7030D01*
X-86310Y6610D01*
X-86460Y6250D01*
X-86700Y5930D01*
X-86980Y5720D01*
X-87290Y5670D01*
G01X-85130D02*
Y8820D01*
X-84180D01*
X-83870Y8660D01*
X-83630Y8300D01*
X-83550Y7880D01*
X-83630Y7460D01*
X-83830Y7140D01*
X-84180Y6980D01*
X-85130D01*
G01X-82180Y5670D02*
Y8820D01*
X-81230D01*
X-80920Y8660D01*
X-80680Y8300D01*
X-80600Y7880D01*
X-80680Y7460D01*
X-80880Y7140D01*
X-81230Y6980D01*
X-82180D01*
G01X-77650Y5670D02*
X-79230D01*
Y8820D01*
X-77650D01*
G01X-78280Y7300D02*
X-79230D01*
G01X-76280Y5670D02*
Y8820D01*
X-75290D01*
X-74980Y8660D01*
X-74780Y8450D01*
X-74700Y8030D01*
X-74780Y7610D01*
X-75020Y7350D01*
X-75290Y7190D01*
X-76280D01*
G01X-75290D02*
X-74700Y5670D01*
G01X-69590Y8820D02*
X-69900Y8720D01*
X-70140Y8450D01*
X-70300Y8140D01*
X-70420Y7720D01*
X-70460Y7240D01*
X-70420Y6770D01*
X-70300Y6350D01*
X-70140Y6040D01*
X-69900Y5770D01*
X-69590Y5670D01*
X-69280Y5770D01*
X-69040Y6040D01*
X-68880Y6350D01*
X-68760Y6770D01*
X-68720Y7240D01*
X-68760Y7720D01*
X-68880Y8140D01*
X-69040Y8450D01*
X-69280Y8720D01*
X-69590Y8820D01*
G01X-66640Y5570D02*
X-66720Y5620D01*
Y5720D01*
X-66640Y5770D01*
X-66560Y5720D01*
Y5620D01*
X-66640Y5570D01*
G01X-63770Y5670D02*
X-63690Y6350D01*
X-63570Y6930D01*
X-63410Y7460D01*
X-63220Y8030D01*
X-62900Y8820D01*
X-64480D01*
G01X-61490Y8300D02*
X-61250Y8610D01*
X-60980Y8770D01*
X-60660Y8820D01*
X-60270Y8720D01*
X-59990Y8450D01*
X-59910Y8140D01*
X-59950Y7820D01*
X-60110Y7560D01*
X-60900Y7030D01*
X-61250Y6670D01*
X-61490Y6140D01*
X-61570Y5670D01*
X-59910D01*
G01X-55860D02*
Y8820D01*
X-54840Y6190D01*
X-53820Y8820D01*
Y5670D01*
G01X-52360Y8820D02*
X-51420D01*
G01X-51890D02*
Y5670D01*
G01X-52360D02*
X-51420D01*
G01X-49730Y8820D02*
Y5670D01*
X-48150D01*
G01X-150110Y1370D02*
X-148370Y3680D01*
G01X-149240Y4100D02*
Y950D01*
G01X-148370Y1370D02*
X-150110Y3680D01*
G01X-150420Y2520D02*
X-148060D01*
G01X-141220Y1890D02*
X-140900Y1630D01*
X-140550Y1470D01*
X-140230D01*
X-139920Y1630D01*
X-139680Y1890D01*
X-139560Y2260D01*
X-139640Y2620D01*
X-139840Y2940D01*
X-140190Y3150D01*
X-140670Y3260D01*
X-140940Y3460D01*
X-141060Y3830D01*
X-140980Y4200D01*
X-140780Y4460D01*
X-140510Y4620D01*
X-140230D01*
X-139960Y4520D01*
X-139720Y4250D01*
G01X-138310Y4620D02*
Y2360D01*
X-138150Y1890D01*
X-137830Y1570D01*
X-137440Y1470D01*
X-137050Y1570D01*
X-136730Y1890D01*
X-136570Y2360D01*
Y4620D01*
G01X-135280Y1470D02*
Y4620D01*
X-134290D01*
X-133980Y4460D01*
X-133780Y4250D01*
X-133700Y3830D01*
X-133780Y3410D01*
X-134020Y3150D01*
X-134290Y2990D01*
X-135280D01*
G01X-134290D02*
X-133700Y1470D01*
G01X-132290D02*
Y4620D01*
X-130790D01*
G01X-131340Y3100D02*
X-132290D01*
G01X-129570Y1470D02*
X-128590Y4620D01*
X-127610Y1470D01*
G01X-127960Y2570D02*
X-129220D01*
G01X-124770Y4360D02*
X-125010Y4520D01*
X-125290Y4620D01*
X-125600D01*
X-125950Y4460D01*
X-126230Y4200D01*
X-126430Y3880D01*
X-126580Y3360D01*
X-126620Y2890D01*
X-126540Y2410D01*
X-126430Y2100D01*
X-126190Y1780D01*
X-125920Y1570D01*
X-125640Y1470D01*
X-125360D01*
X-125090Y1570D01*
X-124850Y1730D01*
X-124660Y1940D01*
G01X-121900Y1470D02*
X-123480D01*
Y4620D01*
X-121900D01*
G01X-122530Y3100D02*
X-123480D01*
G01X-117300Y2520D02*
X-116280D01*
G01X-111870Y1470D02*
X-110890Y4620D01*
X-109910Y1470D01*
G01X-110260Y2570D02*
X-111520D01*
G01X-108410Y4620D02*
X-107470D01*
G01X-107940D02*
Y1470D01*
G01X-108410D02*
X-107470D01*
G01X-105780D02*
Y4620D01*
X-104790D01*
X-104480Y4460D01*
X-104280Y4250D01*
X-104200Y3830D01*
X-104280Y3410D01*
X-104520Y3150D01*
X-104790Y2990D01*
X-105780D01*
G01X-104790D02*
X-104200Y1470D01*
G01X-99090Y4620D02*
X-99400Y4520D01*
X-99640Y4250D01*
X-99800Y3940D01*
X-99920Y3520D01*
X-99960Y3040D01*
X-99920Y2570D01*
X-99800Y2150D01*
X-99640Y1840D01*
X-99400Y1570D01*
X-99090Y1470D01*
X-98780Y1570D01*
X-98540Y1840D01*
X-98380Y2150D01*
X-98260Y2570D01*
X-98220Y3040D01*
X-98260Y3520D01*
X-98380Y3940D01*
X-98540Y4250D01*
X-98780Y4520D01*
X-99090Y4620D01*
G01X-94210Y1470D02*
Y4620D01*
X-93190Y1990D01*
X-92170Y4620D01*
Y1470D01*
G01X-90710Y4620D02*
X-89770D01*
G01X-90240D02*
Y1470D01*
G01X-90710D02*
X-89770D01*
G01X-88080Y4620D02*
Y1470D01*
X-86500D01*
G01X-150110Y106740D02*
X-148370Y109050D01*
G01X-149240Y109470D02*
Y106320D01*
G01X-148370Y106740D02*
X-150110Y109050D01*
G01X-150420Y107890D02*
X-148060D01*
G01X-141260Y106840D02*
Y109990D01*
X-140470D01*
X-140150Y109830D01*
X-139920Y109620D01*
X-139720Y109310D01*
X-139560Y108940D01*
X-139520Y108410D01*
X-139560Y107890D01*
X-139720Y107520D01*
X-139920Y107210D01*
X-140150Y107000D01*
X-140470Y106840D01*
X-141260D01*
G01X-137910Y109990D02*
X-136970D01*
G01X-137440D02*
Y106840D01*
G01X-137910D02*
X-136970D01*
G01X-133700D02*
X-135280D01*
Y109990D01*
X-133700D01*
G01X-134330Y108470D02*
X-135280D01*
G01X-132330Y109990D02*
Y106840D01*
X-130750D01*
G01X-127800D02*
X-129380D01*
Y109990D01*
X-127800D01*
G01X-128430Y108470D02*
X-129380D01*
G01X-124770Y109730D02*
X-125010Y109890D01*
X-125290Y109990D01*
X-125600D01*
X-125950Y109830D01*
X-126230Y109570D01*
X-126430Y109250D01*
X-126580Y108730D01*
X-126620Y108260D01*
X-126540Y107780D01*
X-126430Y107470D01*
X-126190Y107150D01*
X-125920Y106940D01*
X-125640Y106840D01*
X-125360D01*
X-125090Y106940D01*
X-124850Y107100D01*
X-124660Y107310D01*
G01X-122690Y109990D02*
Y106840D01*
G01X-123590Y109990D02*
X-121790D01*
G01X-120530Y106840D02*
Y109990D01*
X-119540D01*
X-119230Y109830D01*
X-119030Y109620D01*
X-118950Y109200D01*
X-119030Y108780D01*
X-119270Y108520D01*
X-119540Y108360D01*
X-120530D01*
G01X-119540D02*
X-118950Y106840D01*
G01X-117260Y109990D02*
X-116320D01*
G01X-116790D02*
Y106840D01*
G01X-117260D02*
X-116320D01*
G01X-112970Y109730D02*
X-113210Y109890D01*
X-113490Y109990D01*
X-113800D01*
X-114150Y109830D01*
X-114430Y109570D01*
X-114630Y109250D01*
X-114780Y108730D01*
X-114820Y108260D01*
X-114740Y107780D01*
X-114630Y107470D01*
X-114390Y107150D01*
X-114120Y106940D01*
X-113840Y106840D01*
X-113560D01*
X-113290Y106940D01*
X-113050Y107100D01*
X-112860Y107310D01*
G01X-108450Y107890D02*
X-107430D01*
G01X-102790Y106840D02*
Y109990D01*
X-101290D01*
G01X-101840Y108470D02*
X-102790D01*
G01X-99880Y106840D02*
Y109990D01*
X-98890D01*
X-98580Y109830D01*
X-98380Y109620D01*
X-98300Y109200D01*
X-98380Y108780D01*
X-98620Y108520D01*
X-98890Y108360D01*
X-99880D01*
G01X-98890D02*
X-98300Y106840D01*
G01X-96650Y107890D02*
X-95630D01*
G01X-92720Y106840D02*
Y109990D01*
X-94170Y107730D01*
X-92210D01*
G01X-88040Y108150D02*
X-87760Y108520D01*
X-87530Y108730D01*
X-87210Y108830D01*
X-86940Y108730D01*
X-86740Y108520D01*
X-86580Y108200D01*
X-86540Y107840D01*
X-86580Y107520D01*
X-86740Y107210D01*
X-86980Y106940D01*
X-87250Y106840D01*
X-87570Y106940D01*
X-87840Y107260D01*
X-88000Y107730D01*
X-88040Y108260D01*
X-87960Y108940D01*
X-87840Y109310D01*
X-87640Y109670D01*
X-87370Y109940D01*
X-87090Y109990D01*
X-86820Y109890D01*
X-86620Y109620D01*
G01X-85090Y109470D02*
X-84850Y109780D01*
X-84580Y109940D01*
X-84260Y109990D01*
X-83870Y109890D01*
X-83590Y109620D01*
X-83510Y109310D01*
X-83550Y108990D01*
X-83710Y108730D01*
X-84500Y108200D01*
X-84850Y107840D01*
X-85090Y107310D01*
X-85170Y106840D01*
X-83510D01*
G01X-81390Y106740D02*
X-81470Y106790D01*
Y106890D01*
X-81390Y106940D01*
X-81310Y106890D01*
Y106790D01*
X-81390Y106740D01*
G01X-79310Y107310D02*
X-79070Y107050D01*
X-78790Y106890D01*
X-78440Y106840D01*
X-78090Y106940D01*
X-77810Y107150D01*
X-77610Y107520D01*
X-77570Y107940D01*
X-77650Y108360D01*
X-77850Y108630D01*
X-78130Y108830D01*
X-78400Y108890D01*
X-78680Y108830D01*
X-79030Y108630D01*
X-78910Y109990D01*
X-77850D01*
G01X-76240Y108150D02*
X-75960Y108520D01*
X-75730Y108730D01*
X-75410Y108830D01*
X-75140Y108730D01*
X-74940Y108520D01*
X-74780Y108200D01*
X-74740Y107840D01*
X-74780Y107520D01*
X-74940Y107210D01*
X-75180Y106940D01*
X-75450Y106840D01*
X-75770Y106940D01*
X-76040Y107260D01*
X-76200Y107730D01*
X-76240Y108260D01*
X-76160Y108940D01*
X-76040Y109310D01*
X-75840Y109670D01*
X-75570Y109940D01*
X-75290Y109990D01*
X-75020Y109890D01*
X-74820Y109620D01*
G01X-70610Y106840D02*
Y109990D01*
X-69590Y107360D01*
X-68570Y109990D01*
Y106840D01*
G01X-67110Y109990D02*
X-66170D01*
G01X-66640D02*
Y106840D01*
G01X-67110D02*
X-66170D01*
G01X-64480Y109990D02*
Y106840D01*
X-62900D01*
G01X-150110Y206980D02*
X-148370Y209290D01*
G01X-149240Y209710D02*
Y206560D01*
G01X-148370Y206980D02*
X-150110Y209290D01*
G01X-150420Y208130D02*
X-148060D01*
G01X-141220Y207500D02*
X-140900Y207240D01*
X-140550Y207080D01*
X-140230D01*
X-139920Y207240D01*
X-139680Y207500D01*
X-139560Y207870D01*
X-139640Y208230D01*
X-139840Y208550D01*
X-140190Y208760D01*
X-140670Y208870D01*
X-140940Y209070D01*
X-141060Y209440D01*
X-140980Y209810D01*
X-140780Y210070D01*
X-140510Y210230D01*
X-140230D01*
X-139960Y210130D01*
X-139720Y209860D01*
G01X-138310Y210230D02*
Y207970D01*
X-138150Y207500D01*
X-137830Y207180D01*
X-137440Y207080D01*
X-137050Y207180D01*
X-136730Y207500D01*
X-136570Y207970D01*
Y210230D01*
G01X-135280Y207080D02*
Y210230D01*
X-134290D01*
X-133980Y210070D01*
X-133780Y209860D01*
X-133700Y209440D01*
X-133780Y209020D01*
X-134020Y208760D01*
X-134290Y208600D01*
X-135280D01*
G01X-134290D02*
X-133700Y207080D01*
G01X-132290D02*
Y210230D01*
X-130790D01*
G01X-131340Y208710D02*
X-132290D01*
G01X-129570Y207080D02*
X-128590Y210230D01*
X-127610Y207080D01*
G01X-127960Y208180D02*
X-129220D01*
G01X-124770Y209970D02*
X-125010Y210130D01*
X-125290Y210230D01*
X-125600D01*
X-125950Y210070D01*
X-126230Y209810D01*
X-126430Y209490D01*
X-126580Y208970D01*
X-126620Y208500D01*
X-126540Y208020D01*
X-126430Y207710D01*
X-126190Y207390D01*
X-125920Y207180D01*
X-125640Y207080D01*
X-125360D01*
X-125090Y207180D01*
X-124850Y207340D01*
X-124660Y207550D01*
G01X-121900Y207080D02*
X-123480D01*
Y210230D01*
X-121900D01*
G01X-122530Y208710D02*
X-123480D01*
G01X-117300Y208130D02*
X-116280D01*
G01X-111870Y207080D02*
X-110890Y210230D01*
X-109910Y207080D01*
G01X-110260Y208180D02*
X-111520D01*
G01X-108410Y210230D02*
X-107470D01*
G01X-107940D02*
Y207080D01*
G01X-108410D02*
X-107470D01*
G01X-105780D02*
Y210230D01*
X-104790D01*
X-104480Y210070D01*
X-104280Y209860D01*
X-104200Y209440D01*
X-104280Y209020D01*
X-104520Y208760D01*
X-104790Y208600D01*
X-105780D01*
G01X-104790D02*
X-104200Y207080D01*
G01X-99090Y210230D02*
X-99400Y210130D01*
X-99640Y209860D01*
X-99800Y209550D01*
X-99920Y209130D01*
X-99960Y208650D01*
X-99920Y208180D01*
X-99800Y207760D01*
X-99640Y207450D01*
X-99400Y207180D01*
X-99090Y207080D01*
X-98780Y207180D01*
X-98540Y207450D01*
X-98380Y207760D01*
X-98260Y208180D01*
X-98220Y208650D01*
X-98260Y209130D01*
X-98380Y209550D01*
X-98540Y209860D01*
X-98780Y210130D01*
X-99090Y210230D01*
G01X-94210Y207080D02*
Y210230D01*
X-93190Y207600D01*
X-92170Y210230D01*
Y207080D01*
G01X-90710Y210230D02*
X-89770D01*
G01X-90240D02*
Y207080D01*
G01X-90710D02*
X-89770D01*
G01X-88080Y210230D02*
Y207080D01*
X-86500D01*
G01X-155930Y204980D02*
Y201830D01*
X-154350D01*
G01X-152190D02*
Y204980D01*
X-152660Y204350D01*
G01Y201830D02*
X-151720D01*
G01X-146290Y204980D02*
Y201830D01*
G01X-147190Y204980D02*
X-145390D01*
G01X-143340Y201830D02*
X-143650Y201880D01*
X-143930Y202090D01*
X-144170Y202410D01*
X-144320Y202770D01*
X-144400Y203190D01*
Y203620D01*
X-144320Y204040D01*
X-144170Y204400D01*
X-143930Y204720D01*
X-143650Y204930D01*
X-143340Y204980D01*
X-143030Y204930D01*
X-142750Y204720D01*
X-142510Y204400D01*
X-142360Y204040D01*
X-142280Y203620D01*
Y203190D01*
X-142360Y202770D01*
X-142510Y202410D01*
X-142750Y202090D01*
X-143030Y201880D01*
X-143340Y201830D01*
G01X-141180D02*
Y204980D01*
X-140230D01*
X-139920Y204820D01*
X-139680Y204460D01*
X-139600Y204040D01*
X-139680Y203620D01*
X-139880Y203300D01*
X-140230Y203140D01*
X-141180D01*
G01X-133620Y204720D02*
X-133860Y204880D01*
X-134140Y204980D01*
X-134450D01*
X-134800Y204820D01*
X-135080Y204560D01*
X-135280Y204240D01*
X-135430Y203720D01*
X-135470Y203250D01*
X-135390Y202770D01*
X-135280Y202460D01*
X-135040Y202140D01*
X-134770Y201930D01*
X-134490Y201830D01*
X-134210D01*
X-133940Y201930D01*
X-133700Y202090D01*
X-133510Y202300D01*
G01X-131540Y201830D02*
X-131850Y201880D01*
X-132130Y202090D01*
X-132370Y202410D01*
X-132520Y202770D01*
X-132600Y203190D01*
Y203620D01*
X-132520Y204040D01*
X-132370Y204400D01*
X-132130Y204720D01*
X-131850Y204930D01*
X-131540Y204980D01*
X-131230Y204930D01*
X-130950Y204720D01*
X-130710Y204400D01*
X-130560Y204040D01*
X-130480Y203620D01*
Y203190D01*
X-130560Y202770D01*
X-130710Y202410D01*
X-130950Y202090D01*
X-131230Y201880D01*
X-131540Y201830D01*
G01X-129490D02*
Y204980D01*
X-127690Y201830D01*
Y204980D01*
G01X-126510Y201830D02*
Y204980D01*
X-125720D01*
X-125400Y204820D01*
X-125170Y204610D01*
X-124970Y204300D01*
X-124810Y203930D01*
X-124770Y203400D01*
X-124810Y202880D01*
X-124970Y202510D01*
X-125170Y202200D01*
X-125400Y201990D01*
X-125720Y201830D01*
X-126510D01*
G01X-123560Y204980D02*
Y202720D01*
X-123400Y202250D01*
X-123080Y201930D01*
X-122690Y201830D01*
X-122300Y201930D01*
X-121980Y202250D01*
X-121820Y202720D01*
Y204980D01*
G01X-118870Y204720D02*
X-119110Y204880D01*
X-119390Y204980D01*
X-119700D01*
X-120050Y204820D01*
X-120330Y204560D01*
X-120530Y204240D01*
X-120680Y203720D01*
X-120720Y203250D01*
X-120640Y202770D01*
X-120530Y202460D01*
X-120290Y202140D01*
X-120020Y201930D01*
X-119740Y201830D01*
X-119460D01*
X-119190Y201930D01*
X-118950Y202090D01*
X-118760Y202300D01*
G01X-116790Y204980D02*
Y201830D01*
G01X-117690Y204980D02*
X-115890D01*
G01X-113840Y201830D02*
X-114150Y201880D01*
X-114430Y202090D01*
X-114670Y202410D01*
X-114820Y202770D01*
X-114900Y203190D01*
Y203620D01*
X-114820Y204040D01*
X-114670Y204400D01*
X-114430Y204720D01*
X-114150Y204930D01*
X-113840Y204980D01*
X-113530Y204930D01*
X-113250Y204720D01*
X-113010Y204400D01*
X-112860Y204040D01*
X-112780Y203620D01*
Y203190D01*
X-112860Y202770D01*
X-113010Y202410D01*
X-113250Y202090D01*
X-113530Y201880D01*
X-113840Y201830D01*
G01X-111680D02*
Y204980D01*
X-110690D01*
X-110380Y204820D01*
X-110180Y204610D01*
X-110100Y204190D01*
X-110180Y203770D01*
X-110420Y203510D01*
X-110690Y203350D01*
X-111680D01*
G01X-110690D02*
X-110100Y201830D01*
G01X-105500Y202880D02*
X-104480D01*
G01X-98220Y204720D02*
X-98460Y204880D01*
X-98740Y204980D01*
X-99050D01*
X-99400Y204820D01*
X-99680Y204560D01*
X-99880Y204240D01*
X-100030Y203720D01*
X-100070Y203250D01*
X-99990Y202770D01*
X-99880Y202460D01*
X-99640Y202140D01*
X-99370Y201930D01*
X-99090Y201830D01*
X-98810D01*
X-98540Y201930D01*
X-98300Y202090D01*
X-98110Y202300D01*
G01X-96140Y201830D02*
X-96450Y201880D01*
X-96730Y202090D01*
X-96970Y202410D01*
X-97120Y202770D01*
X-97200Y203190D01*
Y203620D01*
X-97120Y204040D01*
X-96970Y204400D01*
X-96730Y204720D01*
X-96450Y204930D01*
X-96140Y204980D01*
X-95830Y204930D01*
X-95550Y204720D01*
X-95310Y204400D01*
X-95160Y204040D01*
X-95080Y203620D01*
Y203190D01*
X-95160Y202770D01*
X-95310Y202410D01*
X-95550Y202090D01*
X-95830Y201880D01*
X-96140Y201830D01*
G01X-93980D02*
Y204980D01*
X-93030D01*
X-92720Y204820D01*
X-92480Y204460D01*
X-92400Y204040D01*
X-92480Y203620D01*
X-92680Y203300D01*
X-93030Y203140D01*
X-93980D01*
G01X-91030Y201830D02*
Y204980D01*
X-90080D01*
X-89770Y204820D01*
X-89530Y204460D01*
X-89450Y204040D01*
X-89530Y203620D01*
X-89730Y203300D01*
X-90080Y203140D01*
X-91030D01*
G01X-86500Y201830D02*
X-88080D01*
Y204980D01*
X-86500D01*
G01X-87130Y203460D02*
X-88080D01*
G01X-85130Y201830D02*
Y204980D01*
X-84140D01*
X-83830Y204820D01*
X-83630Y204610D01*
X-83550Y204190D01*
X-83630Y203770D01*
X-83870Y203510D01*
X-84140Y203350D01*
X-85130D01*
G01X-84140D02*
X-83550Y201830D01*
G01X-78440Y204980D02*
X-78750Y204880D01*
X-78990Y204610D01*
X-79150Y204300D01*
X-79270Y203880D01*
X-79310Y203400D01*
X-79270Y202930D01*
X-79150Y202510D01*
X-78990Y202200D01*
X-78750Y201930D01*
X-78440Y201830D01*
X-78130Y201930D01*
X-77890Y202200D01*
X-77730Y202510D01*
X-77610Y202930D01*
X-77570Y203400D01*
X-77610Y203880D01*
X-77730Y204300D01*
X-77890Y204610D01*
X-78130Y204880D01*
X-78440Y204980D01*
G01X-75490Y201730D02*
X-75570Y201780D01*
Y201880D01*
X-75490Y201930D01*
X-75410Y201880D01*
Y201780D01*
X-75490Y201730D01*
G01X-72620Y201830D02*
X-72540Y202510D01*
X-72420Y203090D01*
X-72260Y203620D01*
X-72070Y204190D01*
X-71750Y204980D01*
X-73330D01*
G01X-70340Y204460D02*
X-70100Y204770D01*
X-69830Y204930D01*
X-69510Y204980D01*
X-69120Y204880D01*
X-68840Y204610D01*
X-68760Y204300D01*
X-68800Y203980D01*
X-68960Y203720D01*
X-69750Y203190D01*
X-70100Y202830D01*
X-70340Y202300D01*
X-70420Y201830D01*
X-68760D01*
G01X-64710D02*
Y204980D01*
X-63690Y202350D01*
X-62670Y204980D01*
Y201830D01*
G01X-61210Y204980D02*
X-60270D01*
G01X-60740D02*
Y201830D01*
G01X-61210D02*
X-60270D01*
G01X-58580Y204980D02*
Y201830D01*
X-57000D01*
G01X-118860Y-72820D02*
X-114990Y-60300D01*
X-111110Y-72820D01*
G01X-112510Y-68440D02*
X-117460D01*
G01X-105680Y-60300D02*
Y-72820D01*
X-99490D01*
G01X-93280Y-60300D02*
Y-72820D01*
X-87090D01*
G01X-68790Y-60300D02*
Y-69270D01*
X-68170Y-71150D01*
X-66930Y-72400D01*
X-65390Y-72820D01*
X-63840Y-72400D01*
X-62600Y-71150D01*
X-61980Y-69270D01*
Y-60300D01*
G01X-56550Y-72820D02*
Y-60300D01*
X-49420Y-72820D01*
Y-60300D01*
G01X-42440D02*
X-38730D01*
G01X-40590D02*
Y-72820D01*
G01X-42440D02*
X-38730D01*
G01X-28190Y-60300D02*
Y-72820D01*
G01X-31750Y-60300D02*
X-24620D01*
G01X-19040Y-71150D02*
X-17800Y-72190D01*
X-16400Y-72820D01*
X-15170D01*
X-13930Y-72190D01*
X-13000Y-71150D01*
X-12530Y-69690D01*
X-12840Y-68230D01*
X-13620Y-66980D01*
X-15010Y-66140D01*
X-16870Y-65730D01*
X-17950Y-64890D01*
X-18420Y-63430D01*
X-18110Y-61970D01*
X-17330Y-60930D01*
X-16250Y-60300D01*
X-15170D01*
X-14080Y-60720D01*
X-13150Y-61760D01*
G01X5140Y-72820D02*
X9010Y-60300D01*
X12890Y-72820D01*
G01X11490Y-68440D02*
X6540D01*
G01X18320Y-72820D02*
Y-60300D01*
X22190D01*
X23430Y-60930D01*
X24200Y-61760D01*
X24510Y-63430D01*
X24200Y-65100D01*
X23270Y-66140D01*
X22190Y-66770D01*
X18320D01*
G01X22190D02*
X24510Y-72820D01*
G01X36910D02*
X30720D01*
Y-60300D01*
X36910D01*
G01X34430Y-66350D02*
X30720D01*
G01X56760Y-60300D02*
X60470D01*
G01X58610D02*
Y-72820D01*
G01X56760D02*
X60470D01*
G01X67450D02*
Y-60300D01*
X74580Y-72820D01*
Y-60300D01*
G01X91790Y-72820D02*
Y-60300D01*
X95810Y-70730D01*
X99840Y-60300D01*
Y-72820D01*
G01X106360Y-60300D02*
X110070D01*
G01X108210D02*
Y-72820D01*
G01X106360D02*
X110070D01*
G01X117520Y-60300D02*
Y-72820D01*
X123710D01*
G01X129760Y-71150D02*
X131000Y-72190D01*
X132400Y-72820D01*
X133630D01*
X134870Y-72190D01*
X135800Y-71150D01*
X136270Y-69690D01*
X135960Y-68230D01*
X135180Y-66980D01*
X133790Y-66140D01*
X131930Y-65730D01*
X130850Y-64890D01*
X130380Y-63430D01*
X130690Y-61970D01*
X131470Y-60930D01*
X132550Y-60300D01*
X133630D01*
X134720Y-60720D01*
X135650Y-61760D01*
G01X-125690Y-97860D02*
Y-85340D01*
X-119800D01*
G01X-121970Y-91390D02*
X-125690D01*
G01X-112200Y-85340D02*
X-108490D01*
G01X-110350D02*
Y-97860D01*
G01X-112200D02*
X-108490D01*
G01X-101510D02*
Y-85340D01*
X-94380Y-97860D01*
Y-85340D01*
G01X-87400D02*
X-83690D01*
G01X-85550D02*
Y-97860D01*
G01X-87400D02*
X-83690D01*
G01X-76400Y-96190D02*
X-75160Y-97230D01*
X-73760Y-97860D01*
X-72530D01*
X-71290Y-97230D01*
X-70360Y-96190D01*
X-69890Y-94730D01*
X-70200Y-93270D01*
X-70980Y-92020D01*
X-72370Y-91180D01*
X-74230Y-90770D01*
X-75310Y-89930D01*
X-75780Y-88470D01*
X-75470Y-87010D01*
X-74690Y-85970D01*
X-73610Y-85340D01*
X-72530D01*
X-71440Y-85760D01*
X-70510Y-86800D01*
G01X-64000Y-97860D02*
Y-85340D01*
G01X-57490D02*
Y-97860D01*
G01Y-91600D02*
X-64000D01*
G01X-45250Y-97860D02*
X-51440D01*
Y-85340D01*
X-45250D01*
G01X-47730Y-91390D02*
X-51440D01*
G01X-39350Y-97860D02*
Y-85340D01*
X-36250D01*
X-35020Y-85970D01*
X-34090Y-86800D01*
X-33310Y-88050D01*
X-32690Y-89510D01*
X-32540Y-91600D01*
X-32690Y-93690D01*
X-33310Y-95150D01*
X-34090Y-96400D01*
X-35020Y-97230D01*
X-36250Y-97860D01*
X-39350D01*
G01X-28190Y-102030D02*
X-18900D01*
G01X-14400Y-96190D02*
X-13160Y-97230D01*
X-11760Y-97860D01*
X-10530D01*
X-9290Y-97230D01*
X-8360Y-96190D01*
X-7890Y-94730D01*
X-8200Y-93270D01*
X-8980Y-92020D01*
X-10370Y-91180D01*
X-12230Y-90770D01*
X-13310Y-89930D01*
X-13780Y-88470D01*
X-13470Y-87010D01*
X-12690Y-85970D01*
X-11610Y-85340D01*
X-10530D01*
X-9440Y-85760D01*
X-8510Y-86800D01*
G01X-600Y-85340D02*
X3110D01*
G01X1250D02*
Y-97860D01*
G01X-600D02*
X3110D01*
G01X10710Y-85340D02*
X16600D01*
X10710Y-97860D01*
X16600D01*
G01X29150D02*
X22960D01*
Y-85340D01*
X29150D01*
G01X26670Y-91390D02*
X22960D01*
G01X-66950Y-122900D02*
Y-110380D01*
X-68800Y-112880D01*
G01Y-122900D02*
X-65090D01*
G01X-57490Y-117680D02*
X-56400Y-116220D01*
X-55470Y-115390D01*
X-54240Y-114970D01*
X-53150Y-115390D01*
X-52380Y-116220D01*
X-51760Y-117470D01*
X-51600Y-118940D01*
X-51760Y-120190D01*
X-52380Y-121440D01*
X-53310Y-122480D01*
X-54390Y-122900D01*
X-55630Y-122480D01*
X-56710Y-121230D01*
X-57330Y-119350D01*
X-57490Y-117270D01*
X-57180Y-114550D01*
X-56710Y-113090D01*
X-55940Y-111630D01*
X-54850Y-110590D01*
X-53770Y-110380D01*
X-52690Y-110800D01*
X-51910Y-111840D01*
G01X-42150Y-123320D02*
X-42450Y-123110D01*
Y-122690D01*
X-42150Y-122480D01*
X-41840Y-122690D01*
Y-123110D01*
X-42150Y-123320D01*
G01X-29750Y-110380D02*
X-30980Y-110800D01*
X-31910Y-111840D01*
X-32530Y-113090D01*
X-33000Y-114760D01*
X-33150Y-116640D01*
X-33000Y-118520D01*
X-32530Y-120190D01*
X-31910Y-121440D01*
X-30980Y-122480D01*
X-29750Y-122900D01*
X-28510Y-122480D01*
X-27580Y-121440D01*
X-26960Y-120190D01*
X-26490Y-118520D01*
X-26340Y-116640D01*
X-26490Y-114760D01*
X-26960Y-113090D01*
X-27580Y-111840D01*
X-28510Y-110800D01*
X-29750Y-110380D01*
G01X39790Y186740D02*
Y199260D01*
X37940Y196760D01*
G01Y186740D02*
X41650D01*
G01X49250Y191960D02*
X50340Y193420D01*
X51270Y194250D01*
X52500Y194670D01*
X53590Y194250D01*
X54360Y193420D01*
X54980Y192170D01*
X55140Y190700D01*
X54980Y189450D01*
X54360Y188200D01*
X53430Y187160D01*
X52350Y186740D01*
X51110Y187160D01*
X50030Y188410D01*
X49410Y190290D01*
X49250Y192370D01*
X49560Y195090D01*
X50030Y196550D01*
X50800Y198010D01*
X51890Y199050D01*
X52970Y199260D01*
X54050Y198840D01*
X54830Y197800D01*
G01X64590Y199260D02*
X63360Y198840D01*
X62430Y197800D01*
X61810Y196550D01*
X61340Y194880D01*
X61190Y193000D01*
X61340Y191120D01*
X61810Y189450D01*
X62430Y188200D01*
X63360Y187160D01*
X64590Y186740D01*
X65830Y187160D01*
X66760Y188200D01*
X67380Y189450D01*
X67850Y191120D01*
X68000Y193000D01*
X67850Y194880D01*
X67380Y196550D01*
X66760Y197800D01*
X65830Y198840D01*
X64590Y199260D01*
G01X76990D02*
X75760Y198840D01*
X74830Y197800D01*
X74210Y196550D01*
X73740Y194880D01*
X73590Y193000D01*
X73740Y191120D01*
X74210Y189450D01*
X74830Y188200D01*
X75760Y187160D01*
X76990Y186740D01*
X78230Y187160D01*
X79160Y188200D01*
X79780Y189450D01*
X80250Y191120D01*
X80400Y193000D01*
X80250Y194880D01*
X79780Y196550D01*
X79160Y197800D01*
X78230Y198840D01*
X76990Y199260D01*
G01X89390Y186320D02*
X89090Y186530D01*
Y186950D01*
X89390Y187160D01*
X89700Y186950D01*
Y186530D01*
X89390Y186320D01*
G01X101790Y199260D02*
X100560Y198840D01*
X99630Y197800D01*
X99010Y196550D01*
X98540Y194880D01*
X98390Y193000D01*
X98540Y191120D01*
X99010Y189450D01*
X99630Y188200D01*
X100560Y187160D01*
X101790Y186740D01*
X103030Y187160D01*
X103960Y188200D01*
X104580Y189450D01*
X105050Y191120D01*
X105200Y193000D01*
X105050Y194880D01*
X104580Y196550D01*
X103960Y197800D01*
X103030Y198840D01*
X101790Y199260D01*
G01X114190D02*
X112960Y198840D01*
X112030Y197800D01*
X111410Y196550D01*
X110940Y194880D01*
X110790Y193000D01*
X110940Y191120D01*
X111410Y189450D01*
X112030Y188200D01*
X112960Y187160D01*
X114190Y186740D01*
X115430Y187160D01*
X116360Y188200D01*
X116980Y189450D01*
X117450Y191120D01*
X117600Y193000D01*
X117450Y194880D01*
X116980Y196550D01*
X116360Y197800D01*
X115430Y198840D01*
X114190Y199260D01*
G01X81870Y-122900D02*
Y-110380D01*
X85580D01*
X86820Y-111010D01*
X87750Y-112470D01*
X88060Y-114140D01*
X87750Y-115810D01*
X86980Y-117060D01*
X85580Y-117680D01*
X81870D01*
G01X94270Y-110380D02*
Y-122900D01*
X100460D01*
G01X105890D02*
X109760Y-110380D01*
X113640Y-122900D01*
G01X112240Y-118520D02*
X107290D01*
G01X122160Y-110380D02*
Y-122900D01*
G01X118600Y-110380D02*
X125730D01*
G01X137660Y-122900D02*
X131470D01*
Y-110380D01*
X137660D01*
G01X135180Y-116430D02*
X131470D01*
G01X143560Y-122900D02*
Y-110380D01*
X146660D01*
X147890Y-111010D01*
X148820Y-111840D01*
X149600Y-113090D01*
X150220Y-114550D01*
X150370Y-116640D01*
X150220Y-118730D01*
X149600Y-120190D01*
X148820Y-121440D01*
X147890Y-122270D01*
X146660Y-122900D01*
X143560D01*
G01X81870Y-97860D02*
Y-85340D01*
X85580D01*
X86820Y-85970D01*
X87750Y-87430D01*
X88060Y-89100D01*
X87750Y-90770D01*
X86980Y-92020D01*
X85580Y-92640D01*
X81870D01*
G01X94270Y-85340D02*
Y-97860D01*
X100460D01*
G01X105890D02*
X109760Y-85340D01*
X113640Y-97860D01*
G01X112240Y-93480D02*
X107290D01*
G01X122160Y-85340D02*
Y-97860D01*
G01X118600Y-85340D02*
X125730D01*
G01X137660Y-97860D02*
X131470D01*
Y-85340D01*
X137660D01*
G01X135180Y-91390D02*
X131470D01*
G01X143560Y-97860D02*
Y-85340D01*
X146660D01*
X147890Y-85970D01*
X148820Y-86800D01*
X149600Y-88050D01*
X150220Y-89510D01*
X150370Y-91600D01*
X150220Y-93690D01*
X149600Y-95150D01*
X148820Y-96400D01*
X147890Y-97230D01*
X146660Y-97860D01*
X143560D01*
G01X177790Y74740D02*
Y87260D01*
X175940Y84760D01*
G01Y74740D02*
X179650D01*
G01X187250Y79960D02*
X188340Y81420D01*
X189270Y82250D01*
X190500Y82670D01*
X191590Y82250D01*
X192360Y81420D01*
X192980Y80170D01*
X193140Y78700D01*
X192980Y77450D01*
X192360Y76200D01*
X191430Y75160D01*
X190350Y74740D01*
X189110Y75160D01*
X188030Y76410D01*
X187410Y78290D01*
X187250Y80370D01*
X187560Y83090D01*
X188030Y84550D01*
X188800Y86010D01*
X189890Y87050D01*
X190970Y87260D01*
X192050Y86840D01*
X192830Y85800D01*
G01X202590Y87260D02*
X201360Y86840D01*
X200430Y85800D01*
X199810Y84550D01*
X199340Y82880D01*
X199190Y81000D01*
X199340Y79120D01*
X199810Y77450D01*
X200430Y76200D01*
X201360Y75160D01*
X202590Y74740D01*
X203830Y75160D01*
X204760Y76200D01*
X205380Y77450D01*
X205850Y79120D01*
X206000Y81000D01*
X205850Y82880D01*
X205380Y84550D01*
X204760Y85800D01*
X203830Y86840D01*
X202590Y87260D01*
G01X214990D02*
X213760Y86840D01*
X212830Y85800D01*
X212210Y84550D01*
X211740Y82880D01*
X211590Y81000D01*
X211740Y79120D01*
X212210Y77450D01*
X212830Y76200D01*
X213760Y75160D01*
X214990Y74740D01*
X216230Y75160D01*
X217160Y76200D01*
X217780Y77450D01*
X218250Y79120D01*
X218400Y81000D01*
X218250Y82880D01*
X217780Y84550D01*
X217160Y85800D01*
X216230Y86840D01*
X214990Y87260D01*
G01X227390Y74320D02*
X227090Y74530D01*
Y74950D01*
X227390Y75160D01*
X227700Y74950D01*
Y74530D01*
X227390Y74320D01*
G01X239790Y87260D02*
X238560Y86840D01*
X237630Y85800D01*
X237010Y84550D01*
X236540Y82880D01*
X236390Y81000D01*
X236540Y79120D01*
X237010Y77450D01*
X237630Y76200D01*
X238560Y75160D01*
X239790Y74740D01*
X241030Y75160D01*
X241960Y76200D01*
X242580Y77450D01*
X243050Y79120D01*
X243200Y81000D01*
X243050Y82880D01*
X242580Y84550D01*
X241960Y85800D01*
X241030Y86840D01*
X239790Y87260D01*
G01X252190D02*
X250960Y86840D01*
X250030Y85800D01*
X249410Y84550D01*
X248940Y82880D01*
X248790Y81000D01*
X248940Y79120D01*
X249410Y77450D01*
X250030Y76200D01*
X250960Y75160D01*
X252190Y74740D01*
X253430Y75160D01*
X254360Y76200D01*
X254980Y77450D01*
X255450Y79120D01*
X255600Y81000D01*
X255450Y82880D01*
X254980Y84550D01*
X254360Y85800D01*
X253430Y86840D01*
X252190Y87260D01*
G01X215330Y-117680D02*
X216420Y-116220D01*
X217350Y-115390D01*
X218580Y-114970D01*
X219670Y-115390D01*
X220440Y-116220D01*
X221060Y-117470D01*
X221220Y-118940D01*
X221060Y-120190D01*
X220440Y-121440D01*
X219510Y-122480D01*
X218430Y-122900D01*
X217190Y-122480D01*
X216110Y-121230D01*
X215490Y-119350D01*
X215330Y-117270D01*
X215640Y-114550D01*
X216110Y-113090D01*
X216880Y-111630D01*
X217970Y-110590D01*
X219050Y-110380D01*
X220130Y-110800D01*
X220910Y-111840D01*
G01X205870Y-97860D02*
X204640Y-97650D01*
X203550Y-96820D01*
X202620Y-95560D01*
X202000Y-94100D01*
X201690Y-92430D01*
Y-90770D01*
X202000Y-89100D01*
X202620Y-87640D01*
X203550Y-86380D01*
X204640Y-85550D01*
X205870Y-85340D01*
X207110Y-85550D01*
X208200Y-86380D01*
X209130Y-87640D01*
X209750Y-89100D01*
X210060Y-90770D01*
Y-92430D01*
X209750Y-94100D01*
X209130Y-95560D01*
X208200Y-96820D01*
X207110Y-97650D01*
X205870Y-97860D01*
G01X207110Y-94520D02*
X208970Y-97860D01*
G01X218270Y-85340D02*
Y-97860D01*
G01X214710Y-85340D02*
X221840D01*
G01X230670Y-97860D02*
Y-92230D01*
X227580Y-85340D01*
G01X233770D02*
X230670Y-92230D01*
G54D12*
G01X-239000Y-129160D02*
Y-29000D01*
X257040D01*
Y-129160D01*
X-239000D01*
G01Y-104120D02*
X257040D01*
G01X-239000Y-79080D02*
X257040D01*
G01X-239000Y-54040D02*
X257040D01*
G01X-219270Y9870D02*
Y203800D01*
X-159270D01*
Y9870D01*
X-219270D01*
G01X-149090Y-79080D02*
Y-129160D01*
G01X0Y0D02*
Y160000D01*
X160000D01*
Y0D01*
X0D01*
G01Y174000D02*
Y203000D01*
G01X25570Y193000D02*
X0D01*
G01X15000Y195500D02*
X0Y193000D01*
X15000Y190500D01*
Y195500D01*
G01X52420Y-79080D02*
Y-129160D01*
G01X128430Y193000D02*
X160000D01*
G01X145000Y190500D02*
X160000Y193000D01*
X145000Y195500D01*
Y190500D01*
G01X179530Y-79080D02*
Y-129160D01*
G01X174000Y0D02*
X225000D01*
G01X174000Y160000D02*
X225000D01*
G01X160000Y174000D02*
Y203000D01*
G01X212500Y15000D02*
X215000Y0D01*
X217500Y15000D01*
X212500D01*
G01X217500Y145000D02*
X215000Y160000D01*
X212500Y145000D01*
X217500D01*
G01X215000Y65150D02*
Y0D01*
G01Y96850D02*
Y160000D01*
M02*
