G04 ================== begin FILE IDENTIFICATION RECORD ==================*
G04 Layout Name:  C:/Users/LENOVO/Desktop/P1_MILS/PCB.brd*
G04 Film Name:    SPTOP*
G04 File Format:  Gerber RS274X*
G04 File Origin:  Cadence Allegro 17.2-S025*
G04 Origin Date:  Fri Dec 13 17:52:35 2024*
G04 *
G04 Layer:  VIA CLASS/PASTEMASK_TOP*
G04 Layer:  PIN/PASTEMASK_TOP*
G04 Layer:  PACKAGE GEOMETRY/PASTEMASK_TOP*
G04 Layer:  DRC ERROR CLASS/PASTEMASK_TOP*
G04 *
G04 Offset:    (0.0 0.0)*
G04 Mirror:    No*
G04 Mode:      Positive*
G04 Rotation:  0*
G04 FullContactRelief:  No*
G04 UndefLineWidth:     4.0*
G04 ================== end FILE IDENTIFICATION RECORD ====================*
%FSLAX25Y25*MOIN*%
%IR0*IPPOS*OFA0.00000B0.00000*MIA0B0*SFA1.00000B1.00000*%
%ADD14R,.04X.0512*%
%ADD13R,.052X.036*%
%ADD15C,.035*%
%ADD12R,.0512X.0335*%
%ADD17R,.0335X.0512*%
%ADD11R,.0512X.0354*%
%ADD19R,.0354X.0512*%
%ADD10R,.0571X.0512*%
%ADD18R,.0315X.0472*%
%ADD16R,.0512X.0571*%
%ADD20R,.0512X.0394*%
%LPD*%
G75*
G54D10*
X19690Y17620D03*
Y27620D03*
X137800Y72900D03*
Y82900D03*
G54D20*
Y106760D03*
Y113840D03*
G54D11*
X37400Y17980D03*
X19690Y47110D03*
Y39630D03*
X37400Y25460D03*
X21650Y104590D03*
Y112070D03*
X51180Y17980D03*
Y47110D03*
Y39630D03*
Y25460D03*
X47240Y104590D03*
Y112070D03*
X86610Y49470D03*
Y56950D03*
X114170Y17980D03*
Y25460D03*
X129920Y35690D03*
Y43170D03*
X137800Y60890D03*
Y53410D03*
G54D12*
X37400Y46600D03*
Y40140D03*
X64960D03*
Y46600D03*
X114170Y42660D03*
Y36200D03*
X122050Y75530D03*
Y82070D03*
G54D13*
X19690Y64830D03*
Y57350D03*
G54D14*
X21650Y80060D03*
Y89360D03*
G54D15*
X20000Y140000D03*
X140000Y20000D03*
Y140000D03*
G54D16*
X37240Y131950D03*
X66930Y104390D03*
X47240Y131950D03*
X127800Y126050D03*
X106300Y131950D03*
X137800Y126050D03*
G54D17*
X67640Y17780D03*
X74100D03*
X112910Y57150D03*
X119370D03*
G54D18*
X43310Y78800D03*
X51500D03*
X66610Y82740D03*
X47400Y86910D03*
X70710Y74630D03*
X74800Y82740D03*
X106150Y74630D03*
X110240Y82740D03*
X102050D03*
G54D19*
X88780Y17780D03*
X96260D03*
X94290Y102430D03*
X86810D03*
X71060Y131950D03*
X78540D03*
X106500Y102430D03*
X113980D03*
X132090Y94550D03*
X139570D03*
M02*
