G04 ================== begin FILE IDENTIFICATION RECORD ==================*
G04 Layout Name:  C:/Users/LENOVO/Desktop/P1_MILS/PCB.brd*
G04 Film Name:    SSTOP*
G04 File Format:  Gerber RS274X*
G04 File Origin:  Cadence Allegro 17.2-S025*
G04 Origin Date:  Fri Dec 13 17:52:35 2024*
G04 *
G04 Layer:  REF DES/SILKSCREEN_TOP*
G04 Layer:  PACKAGE GEOMETRY/SILKSCREEN_TOP*
G04 Layer:  BOARD GEOMETRY/SILKSCREEN_TOP*
G04 *
G04 Offset:    (0.0 0.0)*
G04 Mirror:    No*
G04 Mode:      Positive*
G04 Rotation:  0*
G04 FullContactRelief:  No*
G04 UndefLineWidth:     4.0*
G04 ================== end FILE IDENTIFICATION RECORD ====================*
%FSLAX25Y25*MOIN*%
%IR0*IPPOS*OFA0.00000B0.00000*MIA0B0*SFA1.00000B1.00000*%
%ADD10C,.0039*%
%ADD11C,.0079*%
%ADD12C,.004*%
G75*
%LPD*%
G75*
G54D10*
G01X33460Y15020D02*
X41300D01*
X41340Y15060D01*
Y28410D01*
X33460D01*
Y15020D01*
G01X7570Y16440D02*
X7770Y16120D01*
X8010Y15910D01*
X8280Y15810D01*
X8600Y15910D01*
X8830Y16120D01*
X9070Y16440D01*
X9150Y16860D01*
Y18960D01*
G01X11310Y15810D02*
Y18960D01*
X10840Y18330D01*
G01Y15810D02*
X11780D01*
G01X15750Y36680D02*
X23620D01*
Y50060D01*
X15750D01*
Y36680D01*
G01X40910Y49120D02*
Y37620D01*
X33860D01*
Y49120D01*
X40910D01*
G01X6300Y39430D02*
Y42580D01*
X7290D01*
X7600Y42420D01*
X7800Y42210D01*
X7880Y41790D01*
X7800Y41370D01*
X7560Y41110D01*
X7290Y40950D01*
X6300D01*
G01X7290D02*
X7880Y39430D01*
G01X10280Y41000D02*
X11060D01*
Y40060D01*
X10830Y39740D01*
X10550Y39530D01*
X10160Y39430D01*
X9760Y39530D01*
X9490Y39740D01*
X9250Y40060D01*
X9100Y40430D01*
X9020Y40850D01*
Y41220D01*
X9100Y41530D01*
X9250Y41900D01*
X9490Y42210D01*
X9730Y42420D01*
X10040Y42580D01*
X10320D01*
X10630Y42480D01*
X10870Y42260D01*
G01X12240Y42060D02*
X12480Y42370D01*
X12750Y42530D01*
X13070Y42580D01*
X13460Y42480D01*
X13740Y42210D01*
X13820Y41900D01*
X13780Y41580D01*
X13620Y41320D01*
X12830Y40790D01*
X12480Y40430D01*
X12240Y39900D01*
X12160Y39430D01*
X13820D01*
G01X15870Y54390D02*
X23500D01*
Y67780D01*
X15870D01*
Y54390D01*
G01X15280Y73720D02*
X28030D01*
Y95730D01*
X15280D01*
Y73720D01*
G01X6300Y55180D02*
Y58330D01*
X7290D01*
X7600Y58170D01*
X7800Y57960D01*
X7880Y57540D01*
X7800Y57120D01*
X7560Y56860D01*
X7290Y56700D01*
X6300D01*
G01X7290D02*
X7880Y55180D01*
G01X10280Y56750D02*
X11060D01*
Y55810D01*
X10830Y55490D01*
X10550Y55280D01*
X10160Y55180D01*
X9760Y55280D01*
X9490Y55490D01*
X9250Y55810D01*
X9100Y56180D01*
X9020Y56600D01*
Y56970D01*
X9100Y57280D01*
X9250Y57650D01*
X9490Y57960D01*
X9730Y58170D01*
X10040Y58330D01*
X10320D01*
X10630Y58230D01*
X10870Y58010D01*
G01X12990Y55180D02*
Y58330D01*
X12520Y57700D01*
G01Y55180D02*
X13460D01*
G01X8180Y76830D02*
Y79980D01*
X8970D01*
X9290Y79820D01*
X9520Y79610D01*
X9720Y79300D01*
X9880Y78930D01*
X9920Y78400D01*
X9880Y77880D01*
X9720Y77510D01*
X9520Y77200D01*
X9290Y76990D01*
X8970Y76830D01*
X8180D01*
G01X11250Y79460D02*
X11490Y79770D01*
X11760Y79930D01*
X12080Y79980D01*
X12470Y79880D01*
X12750Y79610D01*
X12830Y79300D01*
X12790Y78980D01*
X12630Y78720D01*
X11840Y78190D01*
X11490Y77830D01*
X11250Y77300D01*
X11170Y76830D01*
X12830D01*
G01X21650Y75650D02*
G03Y76050I0J200D01*
G01D02*
G03Y75650I0J-200D01*
G01X17720Y101640D02*
X25590D01*
Y115020D01*
X17720D01*
Y101640D01*
G01X10230Y110300D02*
Y113450D01*
X11220D01*
X11530Y113290D01*
X11730Y113080D01*
X11810Y112660D01*
X11730Y112240D01*
X11490Y111980D01*
X11220Y111820D01*
X10230D01*
G01X11220D02*
X11810Y110300D01*
G01X13970D02*
Y113450D01*
X13500Y112820D01*
G01Y110300D02*
X14440D01*
G01X31660Y147700D02*
Y150850D01*
X32680Y148220D01*
X33700Y150850D01*
Y147700D01*
G01X36340D02*
Y149800D01*
G01Y149430D02*
X36180Y149640D01*
X35940Y149750D01*
X35670Y149800D01*
X35390Y149690D01*
X35160Y149490D01*
X35000Y149170D01*
X34920Y148750D01*
X35000Y148330D01*
X35160Y148010D01*
X35390Y147800D01*
X35670Y147700D01*
X35940Y147750D01*
X36180Y147910D01*
X36340Y148120D01*
G01X38030Y147700D02*
Y149800D01*
G01Y149380D02*
X38230Y149590D01*
X38420Y149750D01*
X38700Y149800D01*
X38890Y149750D01*
X39130Y149590D01*
G01X41530Y149800D02*
Y147700D01*
G01Y150640D02*
X41450Y150690D01*
Y150800D01*
X41530Y150850D01*
X41610Y150800D01*
Y150690D01*
X41530Y150640D01*
G01X43810Y147700D02*
Y149800D01*
G01Y149270D02*
X43970Y149540D01*
X44200Y149750D01*
X44520Y149800D01*
X44790Y149750D01*
X45030Y149540D01*
X45150Y149170D01*
Y147700D01*
G01X49400Y150850D02*
X50380Y147700D01*
X51360Y150850D01*
G01X54040Y147700D02*
Y149800D01*
G01Y149430D02*
X53880Y149640D01*
X53640Y149750D01*
X53370Y149800D01*
X53090Y149690D01*
X52860Y149490D01*
X52700Y149170D01*
X52620Y148750D01*
X52700Y148330D01*
X52860Y148010D01*
X53090Y147800D01*
X53370Y147700D01*
X53640Y147750D01*
X53880Y147910D01*
X54040Y148120D01*
G01X56280Y147700D02*
Y150850D01*
G01X58640Y149120D02*
X59900D01*
X59780Y149490D01*
X59580Y149690D01*
X59310Y149800D01*
X59030Y149750D01*
X58800Y149590D01*
X58640Y149220D01*
X58560Y148910D01*
Y148590D01*
X58640Y148280D01*
X58840Y147960D01*
X59070Y147750D01*
X59350Y147700D01*
X59620Y147800D01*
X59900Y148120D01*
G01X61510Y147700D02*
Y149800D01*
G01Y149270D02*
X61670Y149540D01*
X61900Y149750D01*
X62220Y149800D01*
X62490Y149750D01*
X62730Y149540D01*
X62850Y149170D01*
Y147700D01*
G01X65130Y150850D02*
Y147700D01*
G01X64580Y149800D02*
X65680D01*
G01X68080D02*
Y147700D01*
G01Y150640D02*
X68000Y150690D01*
Y150800D01*
X68080Y150850D01*
X68160Y150800D01*
Y150690D01*
X68080Y150640D01*
G01X70360Y147700D02*
Y149800D01*
G01Y149270D02*
X70520Y149540D01*
X70750Y149750D01*
X71070Y149800D01*
X71340Y149750D01*
X71580Y149540D01*
X71700Y149170D01*
Y147700D01*
G01X73470Y148750D02*
X74490D01*
G01X77170Y149270D02*
X77950D01*
Y148330D01*
X77720Y148010D01*
X77440Y147800D01*
X77050Y147700D01*
X76650Y147800D01*
X76380Y148010D01*
X76140Y148330D01*
X75990Y148700D01*
X75910Y149120D01*
Y149490D01*
X75990Y149800D01*
X76140Y150170D01*
X76380Y150480D01*
X76620Y150690D01*
X76930Y150850D01*
X77210D01*
X77520Y150750D01*
X77760Y150530D01*
G01X80590Y147700D02*
Y149800D01*
G01Y149430D02*
X80430Y149640D01*
X80190Y149750D01*
X79920Y149800D01*
X79640Y149690D01*
X79410Y149490D01*
X79250Y149170D01*
X79170Y148750D01*
X79250Y148330D01*
X79410Y148010D01*
X79640Y147800D01*
X79920Y147700D01*
X80190Y147750D01*
X80430Y147910D01*
X80590Y148120D01*
G01X82120Y147700D02*
Y150850D01*
G01Y149270D02*
X82320Y149590D01*
X82550Y149750D01*
X82790Y149800D01*
X83140Y149690D01*
X83380Y149490D01*
X83540Y149120D01*
Y148700D01*
X83460Y148280D01*
X83300Y147960D01*
X83030Y147750D01*
X82790Y147700D01*
X82550Y147750D01*
X82320Y147910D01*
X82120Y148170D01*
G01X85230Y147700D02*
Y149800D01*
G01Y149380D02*
X85430Y149590D01*
X85620Y149750D01*
X85900Y149800D01*
X86090Y149750D01*
X86330Y149590D01*
G01X88730Y149800D02*
Y147700D01*
G01Y150640D02*
X88650Y150690D01*
Y150800D01*
X88730Y150850D01*
X88810Y150800D01*
Y150690D01*
X88730Y150640D01*
G01X91090Y149120D02*
X92350D01*
X92230Y149490D01*
X92030Y149690D01*
X91760Y149800D01*
X91480Y149750D01*
X91250Y149590D01*
X91090Y149220D01*
X91010Y148910D01*
Y148590D01*
X91090Y148280D01*
X91290Y147960D01*
X91520Y147750D01*
X91800Y147700D01*
X92070Y147800D01*
X92350Y148120D01*
G01X94630Y147700D02*
Y150850D01*
G01X101000Y147700D02*
Y150850D01*
X99550Y148590D01*
X101510D01*
G01X102610Y148330D02*
X102850Y147960D01*
X103170Y147750D01*
X103520Y147700D01*
X103830Y147750D01*
X104150Y148010D01*
X104350Y148330D01*
X104380Y148640D01*
X104310Y149010D01*
X104030Y149270D01*
X103760Y149380D01*
X103400D01*
G01X103760D02*
X103990Y149540D01*
X104190Y149800D01*
X104270Y150110D01*
X104190Y150430D01*
X103990Y150690D01*
X103640Y150850D01*
X103280Y150800D01*
X102930Y150590D01*
G01X105680Y150330D02*
X105920Y150640D01*
X106190Y150800D01*
X106510Y150850D01*
X106900Y150750D01*
X107180Y150480D01*
X107260Y150170D01*
X107220Y149850D01*
X107060Y149590D01*
X106270Y149060D01*
X105920Y148700D01*
X105680Y148170D01*
X105600Y147700D01*
X107260D01*
G01X109690Y149380D02*
X109850Y149540D01*
X109970Y149800D01*
X110050Y150170D01*
X109970Y150480D01*
X109810Y150690D01*
X109540Y150850D01*
X108480D01*
Y147700D01*
X109770D01*
X110050Y147910D01*
X110210Y148220D01*
X110280Y148590D01*
X110210Y148960D01*
X109970Y149270D01*
X109690Y149380D01*
X108480D01*
G01X31890Y141800D02*
Y144950D01*
X32840D01*
X33150Y144790D01*
X33390Y144430D01*
X33470Y144010D01*
X33390Y143590D01*
X33190Y143270D01*
X32840Y143110D01*
X31890D01*
G01X35630Y141800D02*
Y144950D01*
X35160Y144320D01*
G01Y141800D02*
X36100D01*
G01X37710D02*
Y144950D01*
X38500D01*
X38820Y144790D01*
X39050Y144580D01*
X39250Y144270D01*
X39410Y143900D01*
X39450Y143370D01*
X39410Y142850D01*
X39250Y142480D01*
X39050Y142170D01*
X38820Y141960D01*
X38500Y141800D01*
X37710D01*
G01X42400Y144690D02*
X42160Y144850D01*
X41880Y144950D01*
X41570D01*
X41220Y144790D01*
X40940Y144530D01*
X40740Y144210D01*
X40590Y143690D01*
X40550Y143220D01*
X40630Y142740D01*
X40740Y142430D01*
X40980Y142110D01*
X41250Y141900D01*
X41530Y141800D01*
X41810D01*
X42080Y141900D01*
X42320Y142060D01*
X42510Y142270D01*
G01X45270Y141800D02*
X43690D01*
Y144950D01*
X45270D01*
G01X44640Y143430D02*
X43690D01*
G01X47240Y15020D02*
X55080D01*
X55120Y15060D01*
Y28410D01*
X47240D01*
Y15020D01*
G01X41730Y9910D02*
Y13060D01*
X42720D01*
X43030Y12900D01*
X43230Y12690D01*
X43310Y12270D01*
X43230Y11850D01*
X42990Y11590D01*
X42720Y11430D01*
X41730D01*
G01X42720D02*
X43310Y9910D01*
G01X44600Y10540D02*
X44840Y10170D01*
X45160Y9960D01*
X45510Y9910D01*
X45820Y9960D01*
X46140Y10220D01*
X46340Y10540D01*
X46370Y10850D01*
X46300Y11220D01*
X46020Y11480D01*
X45750Y11590D01*
X45390D01*
G01X45750D02*
X45980Y11750D01*
X46180Y12010D01*
X46260Y12320D01*
X46180Y12640D01*
X45980Y12900D01*
X45630Y13060D01*
X45270Y13010D01*
X44920Y12800D01*
G01X55510Y9910D02*
Y13060D01*
X56500D01*
X56810Y12900D01*
X57010Y12690D01*
X57090Y12270D01*
X57010Y11850D01*
X56770Y11590D01*
X56500Y11430D01*
X55510D01*
G01X56500D02*
X57090Y9910D01*
G01X58380Y10380D02*
X58620Y10120D01*
X58900Y9960D01*
X59250Y9910D01*
X59600Y10010D01*
X59880Y10220D01*
X60080Y10590D01*
X60120Y11010D01*
X60040Y11430D01*
X59840Y11700D01*
X59560Y11900D01*
X59290Y11960D01*
X59010Y11900D01*
X58660Y11700D01*
X58780Y13060D01*
X59840D01*
G01X47240Y36680D02*
X55120D01*
Y50060D01*
X47240D01*
Y36680D01*
G01X68460Y49120D02*
Y37620D01*
X61460D01*
Y49120D01*
X68460D01*
G01X55510Y31560D02*
Y34710D01*
X56500D01*
X56810Y34550D01*
X57010Y34340D01*
X57090Y33920D01*
X57010Y33500D01*
X56770Y33240D01*
X56500Y33080D01*
X55510D01*
G01X56500D02*
X57090Y31560D01*
G01X59720D02*
Y34710D01*
X58270Y32450D01*
X60230D01*
G01X43390Y34450D02*
X43150Y34610D01*
X42870Y34710D01*
X42560D01*
X42210Y34550D01*
X41930Y34290D01*
X41730Y33970D01*
X41580Y33450D01*
X41540Y32980D01*
X41620Y32500D01*
X41730Y32190D01*
X41970Y31870D01*
X42240Y31660D01*
X42520Y31560D01*
X42800D01*
X43070Y31660D01*
X43310Y31820D01*
X43500Y32030D01*
G01X45470Y31560D02*
Y34710D01*
X45000Y34080D01*
G01Y31560D02*
X45940D01*
G01X40940Y75380D02*
X54130D01*
X54170Y75420D01*
Y86090D01*
X50350D01*
Y90460D01*
X44530D01*
X44490Y90420D01*
Y86090D01*
X40830D01*
Y75500D01*
X40940Y75380D01*
G01X77170Y86010D02*
X63980D01*
X63940Y85970D01*
Y75300D01*
X67760D01*
Y70930D01*
X73580D01*
X73620Y70970D01*
Y75300D01*
X77280D01*
Y85890D01*
X77170Y86010D01*
G01X43310Y101680D02*
X51180D01*
Y115060D01*
X43310D01*
Y101680D01*
G01X61930Y109390D02*
Y99390D01*
X71930D01*
Y109390D01*
X61930D01*
G01X58270Y88650D02*
X57960Y88700D01*
X57680Y88910D01*
X57440Y89230D01*
X57290Y89590D01*
X57210Y90010D01*
Y90440D01*
X57290Y90860D01*
X57440Y91220D01*
X57680Y91540D01*
X57960Y91750D01*
X58270Y91800D01*
X58580Y91750D01*
X58860Y91540D01*
X59100Y91220D01*
X59250Y90860D01*
X59330Y90440D01*
Y90010D01*
X59250Y89590D01*
X59100Y89230D01*
X58860Y88910D01*
X58580Y88700D01*
X58270Y88650D01*
G01X58580Y89490D02*
X59060Y88650D01*
G01X60470Y91280D02*
X60710Y91590D01*
X60980Y91750D01*
X61300Y91800D01*
X61690Y91700D01*
X61970Y91430D01*
X62050Y91120D01*
X62010Y90800D01*
X61850Y90540D01*
X61060Y90010D01*
X60710Y89650D01*
X60470Y89120D01*
X60390Y88650D01*
X62050D01*
G01X38580D02*
X38270Y88700D01*
X37990Y88910D01*
X37750Y89230D01*
X37600Y89590D01*
X37520Y90010D01*
Y90440D01*
X37600Y90860D01*
X37750Y91220D01*
X37990Y91540D01*
X38270Y91750D01*
X38580Y91800D01*
X38890Y91750D01*
X39170Y91540D01*
X39410Y91220D01*
X39560Y90860D01*
X39640Y90440D01*
Y90010D01*
X39560Y89590D01*
X39410Y89230D01*
X39170Y88910D01*
X38890Y88700D01*
X38580Y88650D01*
G01X38890Y89490D02*
X39370Y88650D01*
G01X41530D02*
Y91800D01*
X41060Y91170D01*
G01Y88650D02*
X42000D01*
G01X54820Y124710D02*
X55020Y124390D01*
X55260Y124180D01*
X55530Y124080D01*
X55850Y124180D01*
X56080Y124390D01*
X56320Y124710D01*
X56400Y125130D01*
Y127230D01*
G01X57810Y126710D02*
X58050Y127020D01*
X58320Y127180D01*
X58640Y127230D01*
X59030Y127130D01*
X59310Y126860D01*
X59390Y126550D01*
X59350Y126230D01*
X59190Y125970D01*
X58400Y125440D01*
X58050Y125080D01*
X57810Y124550D01*
X57730Y124080D01*
X59390D01*
G01X35820Y110300D02*
Y113450D01*
X36810D01*
X37120Y113290D01*
X37320Y113080D01*
X37400Y112660D01*
X37320Y112240D01*
X37080Y111980D01*
X36810Y111820D01*
X35820D01*
G01X36810D02*
X37400Y110300D01*
G01X38810Y112930D02*
X39050Y113240D01*
X39320Y113400D01*
X39640Y113450D01*
X40030Y113350D01*
X40310Y113080D01*
X40390Y112770D01*
X40350Y112450D01*
X40190Y112190D01*
X39400Y111660D01*
X39050Y111300D01*
X38810Y110770D01*
X38730Y110300D01*
X40390D01*
G01X49640Y144430D02*
X49880Y144740D01*
X50150Y144900D01*
X50470Y144950D01*
X50860Y144850D01*
X51140Y144580D01*
X51220Y144270D01*
X51180Y143950D01*
X51020Y143690D01*
X50230Y143160D01*
X49880Y142800D01*
X49640Y142270D01*
X49560Y141800D01*
X51220D01*
G01X53340Y144950D02*
X53030Y144850D01*
X52790Y144580D01*
X52630Y144270D01*
X52510Y143850D01*
X52470Y143370D01*
X52510Y142900D01*
X52630Y142480D01*
X52790Y142170D01*
X53030Y141900D01*
X53340Y141800D01*
X53650Y141900D01*
X53890Y142170D01*
X54050Y142480D01*
X54170Y142900D01*
X54210Y143370D01*
X54170Y143850D01*
X54050Y144270D01*
X53890Y144580D01*
X53650Y144850D01*
X53340Y144950D01*
G01X55540Y144430D02*
X55780Y144740D01*
X56050Y144900D01*
X56370Y144950D01*
X56760Y144850D01*
X57040Y144580D01*
X57120Y144270D01*
X57080Y143950D01*
X56920Y143690D01*
X56130Y143160D01*
X55780Y142800D01*
X55540Y142270D01*
X55460Y141800D01*
X57120D01*
G01X59710D02*
Y144950D01*
X58260Y142690D01*
X60220D01*
G01X61680Y142850D02*
X62700D01*
G01X64390Y144430D02*
X64630Y144740D01*
X64900Y144900D01*
X65220Y144950D01*
X65610Y144850D01*
X65890Y144580D01*
X65970Y144270D01*
X65930Y143950D01*
X65770Y143690D01*
X64980Y143160D01*
X64630Y142800D01*
X64390Y142270D01*
X64310Y141800D01*
X65970D01*
G01X68090Y144950D02*
X67780Y144850D01*
X67540Y144580D01*
X67380Y144270D01*
X67260Y143850D01*
X67220Y143370D01*
X67260Y142900D01*
X67380Y142480D01*
X67540Y142170D01*
X67780Y141900D01*
X68090Y141800D01*
X68400Y141900D01*
X68640Y142170D01*
X68800Y142480D01*
X68920Y142900D01*
X68960Y143370D01*
X68920Y143850D01*
X68800Y144270D01*
X68640Y144580D01*
X68400Y144850D01*
X68090Y144950D01*
G01X70290Y144430D02*
X70530Y144740D01*
X70800Y144900D01*
X71120Y144950D01*
X71510Y144850D01*
X71790Y144580D01*
X71870Y144270D01*
X71830Y143950D01*
X71670Y143690D01*
X70880Y143160D01*
X70530Y142800D01*
X70290Y142270D01*
X70210Y141800D01*
X71870D01*
G01X73120Y142270D02*
X73360Y142010D01*
X73640Y141850D01*
X73990Y141800D01*
X74340Y141900D01*
X74620Y142110D01*
X74820Y142480D01*
X74860Y142900D01*
X74780Y143320D01*
X74580Y143590D01*
X74300Y143790D01*
X74030Y143850D01*
X73750Y143790D01*
X73400Y143590D01*
X73520Y144950D01*
X74580D01*
G01X85830Y13840D02*
X99210D01*
Y21720D01*
X85830D01*
Y13840D01*
G01X65120Y14280D02*
X76610D01*
Y21280D01*
X65120D01*
Y14280D01*
G01X90940Y9910D02*
Y13060D01*
X91930D01*
X92240Y12900D01*
X92440Y12690D01*
X92520Y12270D01*
X92440Y11850D01*
X92200Y11590D01*
X91930Y11430D01*
X90940D01*
G01X91930D02*
X92520Y9910D01*
G01X94680D02*
X94960Y9960D01*
X95270Y10120D01*
X95470Y10380D01*
X95550Y10750D01*
X95470Y11120D01*
X95230Y11430D01*
X94880Y11590D01*
X94480D01*
X94250Y11700D01*
X94050Y11960D01*
X93970Y12320D01*
X94090Y12690D01*
X94370Y12960D01*
X94680Y13060D01*
X94990Y12960D01*
X95270Y12690D01*
X95390Y12320D01*
X95310Y11960D01*
X95110Y11700D01*
X94880Y11590D01*
X94480D01*
X94130Y11430D01*
X93890Y11120D01*
X93810Y10750D01*
X93890Y10380D01*
X94090Y10120D01*
X94400Y9960D01*
X94680Y9910D01*
G01X70950Y12800D02*
X70710Y12960D01*
X70430Y13060D01*
X70120D01*
X69770Y12900D01*
X69490Y12640D01*
X69290Y12320D01*
X69140Y11800D01*
X69100Y11330D01*
X69180Y10850D01*
X69290Y10540D01*
X69530Y10220D01*
X69800Y10010D01*
X70080Y9910D01*
X70360D01*
X70630Y10010D01*
X70870Y10170D01*
X71060Y10380D01*
G01X72160Y10540D02*
X72400Y10170D01*
X72720Y9960D01*
X73070Y9910D01*
X73380Y9960D01*
X73700Y10220D01*
X73900Y10540D01*
X73930Y10850D01*
X73860Y11220D01*
X73580Y11480D01*
X73310Y11590D01*
X72950D01*
G01X73310D02*
X73540Y11750D01*
X73740Y12010D01*
X73820Y12320D01*
X73740Y12640D01*
X73540Y12900D01*
X73190Y13060D01*
X72830Y13010D01*
X72480Y12800D01*
G01X82680Y46520D02*
X90550D01*
Y59910D01*
X82680D01*
Y46520D01*
G01X85040Y41400D02*
Y44550D01*
X86030D01*
X86340Y44390D01*
X86540Y44180D01*
X86620Y43760D01*
X86540Y43340D01*
X86300Y43080D01*
X86030Y42920D01*
X85040D01*
G01X86030D02*
X86620Y41400D01*
G01X88030Y42710D02*
X88310Y43080D01*
X88540Y43290D01*
X88860Y43390D01*
X89130Y43290D01*
X89330Y43080D01*
X89490Y42760D01*
X89530Y42400D01*
X89490Y42080D01*
X89330Y41770D01*
X89090Y41500D01*
X88820Y41400D01*
X88500Y41500D01*
X88230Y41820D01*
X88070Y42290D01*
X88030Y42820D01*
X88110Y43500D01*
X88230Y43870D01*
X88430Y44230D01*
X88700Y44500D01*
X88980Y44550D01*
X89250Y44450D01*
X89450Y44180D01*
G01X70950Y34450D02*
X70710Y34610D01*
X70430Y34710D01*
X70120D01*
X69770Y34550D01*
X69490Y34290D01*
X69290Y33970D01*
X69140Y33450D01*
X69100Y32980D01*
X69180Y32500D01*
X69290Y32190D01*
X69530Y31870D01*
X69800Y31660D01*
X70080Y31560D01*
X70360D01*
X70630Y31660D01*
X70870Y31820D01*
X71060Y32030D01*
G01X72280Y34190D02*
X72520Y34500D01*
X72790Y34660D01*
X73110Y34710D01*
X73500Y34610D01*
X73780Y34340D01*
X73860Y34030D01*
X73820Y33710D01*
X73660Y33450D01*
X72870Y32920D01*
X72520Y32560D01*
X72280Y32030D01*
X72200Y31560D01*
X73860D01*
G01X83860Y98490D02*
X97200D01*
Y106360D01*
X83860D01*
Y98490D01*
G01X83070Y92580D02*
Y95730D01*
X84060D01*
X84370Y95570D01*
X84570Y95360D01*
X84650Y94940D01*
X84570Y94520D01*
X84330Y94260D01*
X84060Y94100D01*
X83070D01*
G01X84060D02*
X84650Y92580D01*
G01X86730D02*
X86810Y93260D01*
X86930Y93840D01*
X87090Y94370D01*
X87280Y94940D01*
X87600Y95730D01*
X86020D01*
G01X72530Y103060D02*
X72730Y102740D01*
X72970Y102530D01*
X73240Y102430D01*
X73560Y102530D01*
X73790Y102740D01*
X74030Y103060D01*
X74110Y103480D01*
Y105580D01*
G01X75400Y102900D02*
X75640Y102640D01*
X75920Y102480D01*
X76270Y102430D01*
X76620Y102530D01*
X76900Y102740D01*
X77100Y103110D01*
X77140Y103530D01*
X77060Y103950D01*
X76860Y104220D01*
X76580Y104420D01*
X76310Y104480D01*
X76030Y104420D01*
X75680Y104220D01*
X75800Y105580D01*
X76860D01*
G01X68110Y128020D02*
X81500D01*
Y135890D01*
X68110D01*
Y128020D01*
G01X83070Y124080D02*
Y127230D01*
X84060D01*
X84370Y127070D01*
X84570Y126860D01*
X84650Y126440D01*
X84570Y126020D01*
X84330Y125760D01*
X84060Y125600D01*
X83070D01*
G01X84060D02*
X84650Y124080D01*
G01X86140Y124450D02*
X86420Y124180D01*
X86730Y124080D01*
X87050Y124180D01*
X87320Y124500D01*
X87520Y124970D01*
X87600Y125440D01*
Y126020D01*
X87520Y126490D01*
X87320Y126910D01*
X87090Y127130D01*
X86810Y127230D01*
X86500Y127130D01*
X86260Y126910D01*
X86100Y126600D01*
X86020Y126180D01*
X86100Y125810D01*
X86300Y125440D01*
X86530Y125230D01*
X86810Y125180D01*
X87120Y125290D01*
X87360Y125550D01*
X87600Y126020D01*
G01X110240Y15020D02*
X118110D01*
Y28410D01*
X110240D01*
Y15020D01*
G01X110630Y9910D02*
Y13060D01*
X111620D01*
X111930Y12900D01*
X112130Y12690D01*
X112210Y12270D01*
X112130Y11850D01*
X111890Y11590D01*
X111620Y11430D01*
X110630D01*
G01X111620D02*
X112210Y9910D01*
G01X114370D02*
Y13060D01*
X113900Y12430D01*
G01Y9910D02*
X114840D01*
G01X116570Y12540D02*
X116810Y12850D01*
X117080Y13010D01*
X117400Y13060D01*
X117790Y12960D01*
X118070Y12690D01*
X118150Y12380D01*
X118110Y12060D01*
X117950Y11800D01*
X117160Y11270D01*
X116810Y10910D01*
X116570Y10380D01*
X116490Y9910D01*
X118150D01*
G01X110750Y33760D02*
X117600D01*
Y45100D01*
X110750D01*
Y33760D01*
G01X124410Y47310D02*
Y50460D01*
X125400D01*
X125710Y50300D01*
X125910Y50090D01*
X125990Y49670D01*
X125910Y49250D01*
X125670Y48990D01*
X125400Y48830D01*
X124410D01*
G01X125400D02*
X125990Y47310D01*
G01X127360Y50460D02*
Y47310D01*
X128940D01*
G01X131100D02*
Y50460D01*
X130630Y49830D01*
G01Y47310D02*
X131570D01*
G01X114250Y50200D02*
X114010Y50360D01*
X113730Y50460D01*
X113420D01*
X113070Y50300D01*
X112790Y50040D01*
X112590Y49720D01*
X112440Y49200D01*
X112400Y48730D01*
X112480Y48250D01*
X112590Y47940D01*
X112830Y47620D01*
X113100Y47410D01*
X113380Y47310D01*
X113660D01*
X113930Y47410D01*
X114170Y47570D01*
X114360Y47780D01*
G01X116800Y47310D02*
Y50460D01*
X115350Y48200D01*
X117310D01*
G01X104410Y34450D02*
X104170Y34610D01*
X103890Y34710D01*
X103580D01*
X103230Y34550D01*
X102950Y34290D01*
X102750Y33970D01*
X102600Y33450D01*
X102560Y32980D01*
X102640Y32500D01*
X102750Y32190D01*
X102990Y31870D01*
X103260Y31660D01*
X103540Y31560D01*
X103820D01*
X104090Y31660D01*
X104330Y31820D01*
X104520Y32030D01*
G01X105740Y32870D02*
X106020Y33240D01*
X106250Y33450D01*
X106570Y33550D01*
X106840Y33450D01*
X107040Y33240D01*
X107200Y32920D01*
X107240Y32560D01*
X107200Y32240D01*
X107040Y31930D01*
X106800Y31660D01*
X106530Y31560D01*
X106210Y31660D01*
X105940Y31980D01*
X105780Y32450D01*
X105740Y32980D01*
X105820Y33660D01*
X105940Y34030D01*
X106140Y34390D01*
X106410Y34660D01*
X106690Y34710D01*
X106960Y34610D01*
X107160Y34340D01*
G01X110390Y53650D02*
X121890D01*
Y60690D01*
X110390D01*
Y53650D01*
G01X118460Y72980D02*
X125630D01*
Y84630D01*
X118460D01*
Y72980D01*
G01X112560Y86090D02*
X99370D01*
X99330Y86050D01*
Y75380D01*
X103150D01*
Y71010D01*
X108980D01*
X109020Y71050D01*
Y75380D01*
X112680D01*
Y85970D01*
X112560Y86090D01*
G01X114250Y71850D02*
X114010Y72010D01*
X113730Y72110D01*
X113420D01*
X113070Y71950D01*
X112790Y71690D01*
X112590Y71370D01*
X112440Y70850D01*
X112400Y70380D01*
X112480Y69900D01*
X112590Y69590D01*
X112830Y69270D01*
X113100Y69060D01*
X113380Y68960D01*
X113660D01*
X113930Y69060D01*
X114170Y69220D01*
X114360Y69430D01*
G01X115460D02*
X115700Y69170D01*
X115980Y69010D01*
X116330Y68960D01*
X116680Y69060D01*
X116960Y69270D01*
X117160Y69640D01*
X117200Y70060D01*
X117120Y70480D01*
X116920Y70750D01*
X116640Y70950D01*
X116370Y71010D01*
X116090Y70950D01*
X115740Y70750D01*
X115860Y72110D01*
X116920D01*
G01X103540Y98490D02*
X116930D01*
Y106360D01*
X103540D01*
Y98490D01*
G01X112590Y92580D02*
Y95730D01*
X113580D01*
X113890Y95570D01*
X114090Y95360D01*
X114170Y94940D01*
X114090Y94520D01*
X113850Y94260D01*
X113580Y94100D01*
X112590D01*
G01X113580D02*
X114170Y92580D01*
G01X116330D02*
Y95730D01*
X115860Y95100D01*
G01Y92580D02*
X116800D01*
G01X119280Y95730D02*
X118970Y95630D01*
X118730Y95360D01*
X118570Y95050D01*
X118450Y94630D01*
X118410Y94150D01*
X118450Y93680D01*
X118570Y93260D01*
X118730Y92950D01*
X118970Y92680D01*
X119280Y92580D01*
X119590Y92680D01*
X119830Y92950D01*
X119990Y93260D01*
X120110Y93680D01*
X120150Y94150D01*
X120110Y94630D01*
X119990Y95050D01*
X119830Y95360D01*
X119590Y95630D01*
X119280Y95730D01*
G01X99610Y88650D02*
X99300Y88700D01*
X99020Y88910D01*
X98780Y89230D01*
X98630Y89590D01*
X98550Y90010D01*
Y90440D01*
X98630Y90860D01*
X98780Y91220D01*
X99020Y91540D01*
X99300Y91750D01*
X99610Y91800D01*
X99920Y91750D01*
X100200Y91540D01*
X100440Y91220D01*
X100590Y90860D01*
X100670Y90440D01*
Y90010D01*
X100590Y89590D01*
X100440Y89230D01*
X100200Y88910D01*
X99920Y88700D01*
X99610Y88650D01*
G01X99920Y89490D02*
X100400Y88650D01*
G01X101690Y89280D02*
X101930Y88910D01*
X102250Y88700D01*
X102600Y88650D01*
X102910Y88700D01*
X103230Y88960D01*
X103430Y89280D01*
X103460Y89590D01*
X103390Y89960D01*
X103110Y90220D01*
X102840Y90330D01*
X102480D01*
G01X102840D02*
X103070Y90490D01*
X103270Y90750D01*
X103350Y91060D01*
X103270Y91380D01*
X103070Y91640D01*
X102720Y91800D01*
X102360Y91750D01*
X102010Y91540D01*
G01X111900Y124710D02*
X112100Y124390D01*
X112340Y124180D01*
X112610Y124080D01*
X112930Y124180D01*
X113160Y124390D01*
X113400Y124710D01*
X113480Y125130D01*
Y127230D01*
G01X114890Y125390D02*
X115170Y125760D01*
X115400Y125970D01*
X115720Y126070D01*
X115990Y125970D01*
X116190Y125760D01*
X116350Y125440D01*
X116390Y125080D01*
X116350Y124760D01*
X116190Y124450D01*
X115950Y124180D01*
X115680Y124080D01*
X115360Y124180D01*
X115090Y124500D01*
X114930Y124970D01*
X114890Y125500D01*
X114970Y126180D01*
X115090Y126550D01*
X115290Y126910D01*
X115560Y127180D01*
X115840Y127230D01*
X116110Y127130D01*
X116310Y126860D01*
G01X101300Y136950D02*
Y126950D01*
G01X111300D02*
Y136950D01*
G01X101300Y126950D02*
X111300D01*
G01Y136950D02*
X101300D01*
G01X125980Y32740D02*
X133860D01*
Y46130D01*
X125980D01*
Y32740D01*
G01X133860Y50460D02*
X141730D01*
Y63840D01*
X133860D01*
Y50460D01*
G01X145370Y69590D02*
X145570Y69270D01*
X145810Y69060D01*
X146080Y68960D01*
X146400Y69060D01*
X146630Y69270D01*
X146870Y69590D01*
X146950Y70010D01*
Y72110D01*
G01X149580Y68960D02*
Y72110D01*
X148130Y69850D01*
X150090D01*
G01X144090Y53210D02*
Y56360D01*
X145080D01*
X145390Y56200D01*
X145590Y55990D01*
X145670Y55570D01*
X145590Y55150D01*
X145350Y54890D01*
X145080Y54730D01*
X144090D01*
G01X145080D02*
X145670Y53210D01*
G01X147040Y56360D02*
Y53210D01*
X148620D01*
G01X150030Y55840D02*
X150270Y56150D01*
X150540Y56310D01*
X150860Y56360D01*
X151250Y56260D01*
X151530Y55990D01*
X151610Y55680D01*
X151570Y55360D01*
X151410Y55100D01*
X150620Y54570D01*
X150270Y54210D01*
X150030Y53680D01*
X149950Y53210D01*
X151610D01*
G01X129130Y90610D02*
X142520D01*
Y98490D01*
X129130D01*
Y90610D01*
G01X144090Y92580D02*
Y95730D01*
X145080D01*
X145390Y95570D01*
X145590Y95360D01*
X145670Y94940D01*
X145590Y94520D01*
X145350Y94260D01*
X145080Y94100D01*
X144090D01*
G01X145080D02*
X145670Y92580D01*
G01X147830D02*
Y95730D01*
X147360Y95100D01*
G01Y92580D02*
X148300D01*
G01X150780D02*
Y95730D01*
X150310Y95100D01*
G01Y92580D02*
X151250D01*
G01X144010Y104390D02*
Y107540D01*
X144800D01*
X145120Y107380D01*
X145350Y107170D01*
X145550Y106860D01*
X145710Y106490D01*
X145750Y105960D01*
X145710Y105440D01*
X145550Y105070D01*
X145350Y104760D01*
X145120Y104550D01*
X144800Y104390D01*
X144010D01*
G01X147830D02*
Y107540D01*
X147360Y106910D01*
G01Y104390D02*
X148300D01*
G01X142050Y103210D02*
Y113840D01*
G01X133540Y103210D02*
X142050D01*
G01X133540Y113840D02*
Y103210D01*
G01Y113840D02*
Y117390D01*
X133700Y117540D01*
X142050D01*
Y113840D01*
G01X143400Y124710D02*
X143600Y124390D01*
X143840Y124180D01*
X144110Y124080D01*
X144430Y124180D01*
X144660Y124390D01*
X144900Y124710D01*
X144980Y125130D01*
Y127230D01*
G01X146270Y124710D02*
X146510Y124340D01*
X146830Y124130D01*
X147180Y124080D01*
X147490Y124130D01*
X147810Y124390D01*
X148010Y124710D01*
X148040Y125020D01*
X147970Y125390D01*
X147690Y125650D01*
X147420Y125760D01*
X147060D01*
G01X147420D02*
X147650Y125920D01*
X147850Y126180D01*
X147930Y126490D01*
X147850Y126810D01*
X147650Y127070D01*
X147300Y127230D01*
X146940Y127180D01*
X146590Y126970D01*
G54D11*
G01X17560Y43370D02*
X21810D01*
G01X17640Y61090D02*
X21730D01*
G01X19530Y108330D02*
X23780D01*
G01X35280Y21720D02*
X39530D01*
G01X49060Y43370D02*
X53310D01*
G01X49060Y21720D02*
X53310D01*
G01X35350Y43370D02*
X39450D01*
G01X67010D02*
X62910D01*
G01X45120Y108330D02*
X49370D01*
G01X92520Y15650D02*
Y19910D01*
G01X70870Y15730D02*
Y19830D01*
G01X84490Y53210D02*
X88740D01*
G01X90550Y104550D02*
Y100300D01*
G01X74800Y129830D02*
Y134080D01*
G01X112050Y21720D02*
X116300D01*
G01X112130Y39430D02*
X116220D01*
G01X116140Y55100D02*
Y59200D01*
G01X110240Y100300D02*
Y104550D01*
G01X132050Y39430D02*
X127800D01*
G01X135670Y57150D02*
X139920D01*
G01X135830Y92430D02*
Y96680D01*
G54D12*
G01X14690Y32620D02*
X24690D01*
Y12620D01*
X14690D01*
Y32620D01*
G01X52240Y136950D02*
Y126950D01*
X32240D01*
Y136950D01*
X52240D01*
G01X61930Y99390D02*
Y109390D01*
X71930D01*
Y99390D01*
X61930D01*
G01X142800Y131050D02*
Y121050D01*
X122800D01*
Y131050D01*
X142800D01*
G01X101300Y126950D02*
Y136950D01*
X111300D01*
Y126950D01*
X101300D01*
G01X142800Y67900D02*
X132800D01*
Y87900D01*
X142800D01*
Y67900D01*
M02*
